<svg xmlns="http://www.w3.org/2000/svg" version="1.1" xmlns:xlink="http://www.w3.org/1999/xlink" xmlns:svgjs="http://svgjs.dev/svgjs" width="500" height="500" preserveAspectRatio="none" viewBox="0 0 500 500"><g mask="url(&quot;#SvgjsMask1077&quot;)" fill="none"><rect width="500" height="500" x="0" y="0" fill="rgba(255, 255, 255, 1)"></rect><path d="M287.748,205.656C309.763,204.826,327.533,190.272,339.106,171.526C351.439,151.549,359.758,127.382,348.93,106.551C337.41,84.39,312.702,71.675,287.748,72.726C264.378,73.71,246.446,91.019,234.884,111.353C223.482,131.405,217.935,155.548,229.214,175.669C240.704,196.165,264.268,206.541,287.748,205.656" fill="rgba(255, 143, 0, 0.28)" class="triangle-float2"></path><path d="M535.138,557.063C574.718,555.402,605.875,526.497,624.643,491.61C642.324,458.743,644.528,419.862,626.539,387.163C607.875,353.236,573.858,329.279,535.138,328.914C495.825,328.544,461.086,351.793,440.705,385.413C419.469,420.444,411.851,463.821,431.597,499.713C451.98,536.763,492.888,558.836,535.138,557.063" fill="rgba(255, 143, 0, 0.28)" class="triangle-float3"></path><path d="M207.034,66.369C227.46,65.064,245.426,55.071,256.864,38.097C270.119,18.426,280.816,-5.912,269.947,-26.995C258.424,-49.347,232.13,-60.154,207.034,-58.558C184.354,-57.116,168.289,-39.28,156.604,-19.788C144.46,0.47,132.868,24.876,144.799,45.26C156.66,65.523,183.603,67.867,207.034,66.369" fill="rgba(255, 143, 0, 0.28)" class="triangle-float2"></path><path d="M148.351,233.774C167.61,234.442,185.944,222.915,194.324,205.561C201.876,189.923,194.204,172.587,185.014,157.852C176.516,144.227,164.379,132.837,148.351,131.853C130.525,130.759,111.888,137.344,102.968,152.817C94.055,168.277,98.865,186.986,107.591,202.552C116.561,218.552,130.019,233.138,148.351,233.774" fill="rgba(255, 143, 0, 0.28)" class="triangle-float1"></path></g><defs><mask id="SvgjsMask1077"><rect width="500" height="500" fill="#ffffff"></rect></mask><style>
                @keyframes float1 {
                    0%{transform: translate(0, 0)}
                    50%{transform: translate(-10px, 0)}
                    100%{transform: translate(0, 0)}
                }

                .triangle-float1 {
                    animation: float1 5s infinite;
                }

                @keyframes float2 {
                    0%{transform: translate(0, 0)}
                    50%{transform: translate(-5px, -5px)}
                    100%{transform: translate(0, 0)}
                }

                .triangle-float2 {
                    animation: float2 4s infinite;
                }

                @keyframes float3 {
                    0%{transform: translate(0, 0)}
                    50%{transform: translate(0, -10px)}
                    100%{transform: translate(0, 0)}
                }

                .triangle-float3 {
                    animation: float3 6s infinite;
                }
            </style></defs></svg>