<svg xmlns="http://www.w3.org/2000/svg" version="1.1" xmlns:xlink="http://www.w3.org/1999/xlink" xmlns:svgjs="http://svgjs.dev/svgjs" width="1600" height="8000" preserveAspectRatio="none" viewBox="0 0 1600 8000"><g mask="url(&quot;#SvgjsMask3391&quot;)" fill="none"><rect width="703.8" height="703.8" clip-path="url(&quot;#SvgjsClipPath3392&quot;)" x="1149.35" y="1513.37" fill="url(&quot;#SvgjsPattern3393&quot;)" transform="rotate(295.96, 1501.25, 1865.27)"></rect><path d="M669.95 1138.17a5.6 5.6 0 1 0-8.39-7.41 5.6 5.6 0 1 0 8.39 7.41zM657.96 1127.59a5.6 5.6 0 1 0-8.4-7.41 5.6 5.6 0 1 0 8.4 7.41zM645.96 1117a5.6 5.6 0 1 0-8.4-7.41 5.6 5.6 0 1 0 8.4 7.41zM633.96 1106.42a5.6 5.6 0 1 0-8.4-7.41 5.6 5.6 0 1 0 8.4 7.41z" stroke="rgba(255, 143, 0, 1)" stroke-width="1" stroke-dasharray="2, 2"></path><path d="M271.21 7080.639999999999 L557.3199999999999 7079.889999999999L529.5984107357418 7195.598410735741z" stroke="rgba(255, 143, 0, 1)" stroke-width="2.06" stroke-dasharray="3, 2"></path><rect width="60" height="60" clip-path="url(&quot;#SvgjsClipPath3394&quot;)" x="217.73" y="3510.36" fill="url(&quot;#SvgjsPattern3395&quot;)" transform="rotate(28.61, 247.73, 3540.36)"></rect><path d="M1903.04 4012.58 L1662.75 3928.62L1678.5684420567345 4074.9265579432654z" fill="rgba(255, 219, 0, 1)"></path><path d="M1030.7 224.52a5.6 5.6 0 1 0 4.26 10.36 5.6 5.6 0 1 0-4.26-10.36zM1036.78 239.32a5.6 5.6 0 1 0 4.25 10.37 5.6 5.6 0 1 0-4.25-10.37zM1042.86 254.13a5.6 5.6 0 1 0 4.25 10.36 5.6 5.6 0 1 0-4.25-10.36zM1048.93 268.93a5.6 5.6 0 1 0 4.26 10.36 5.6 5.6 0 1 0-4.26-10.36zM1003.75 201a5.6 5.6 0 1 0 4.25 10.36 5.6 5.6 0 1 0-4.25-10.36zM1009.83 215.8a5.6 5.6 0 1 0 4.25 10.36 5.6 5.6 0 1 0-4.25-10.36zM1015.9 230.6a5.6 5.6 0 1 0 4.26 10.36 5.6 5.6 0 1 0-4.26-10.36zM1021.98 245.4a5.6 5.6 0 1 0 4.25 10.36 5.6 5.6 0 1 0-4.25-10.36zM976.8 177.47a5.6 5.6 0 1 0 4.25 10.36 5.6 5.6 0 1 0-4.25-10.36zM982.87 192.27a5.6 5.6 0 1 0 4.26 10.36 5.6 5.6 0 1 0-4.26-10.36zM988.95 207.07a5.6 5.6 0 1 0 4.25 10.36 5.6 5.6 0 1 0-4.25-10.36zM995.03 221.87a5.6 5.6 0 1 0 4.25 10.37 5.6 5.6 0 1 0-4.25-10.37z" fill="rgba(175, 71, 210, 1)"></path><rect width="672" height="672" clip-path="url(&quot;#SvgjsClipPath3396&quot;)" x="-18.12" y="2390.56" fill="url(&quot;#SvgjsPattern3397&quot;)" transform="rotate(4.69, 317.88, 2726.56)"></rect><rect width="720" height="720" clip-path="url(&quot;#SvgjsClipPath3398&quot;)" x="-120.27" y="2209.88" fill="url(&quot;#SvgjsPattern3399&quot;)" transform="rotate(59.22, 239.73, 2569.88)"></rect><rect width="204" height="204" clip-path="url(&quot;#SvgjsClipPath3400&quot;)" x="815.81" y="1863.88" fill="url(&quot;#SvgjsPattern3401&quot;)" transform="rotate(107.33, 917.81, 1965.88)"></rect><path d="M1256.15 6568.0199999999995 L1271.8000000000002 6396L1374.4448366262732 6592.479836626273z" stroke="rgba(255, 219, 0, 1)" stroke-width="2.44" stroke-dasharray="3, 2"></path><path d="M601.96 5981.15 L755.39 6020.73L568.0774612980513 6111.5375387019485z" fill="rgba(255, 143, 0, 1)"></path><path d="M1638.4099999999999 795.62 L1446.53 941.73L1387.5599312412628 713.7649312412628z" stroke="rgba(255, 143, 0, 1)" stroke-width="1" stroke-dasharray="3, 3"></path><rect width="726.16" height="726.16" clip-path="url(&quot;#SvgjsClipPath3402&quot;)" x="1037.85" y="3953.09" fill="url(&quot;#SvgjsPattern3403&quot;)" transform="rotate(326.1, 1400.93, 4316.17)"></rect><rect width="74" height="74" clip-path="url(&quot;#SvgjsClipPath3404&quot;)" x="290.57" y="1290.77" fill="url(&quot;#SvgjsPattern3405&quot;)" transform="rotate(198.89, 327.57, 1327.77)"></rect><rect width="960" height="960" clip-path="url(&quot;#SvgjsClipPath3406&quot;)" x="-273.2" y="1297.56" fill="url(&quot;#SvgjsPattern3407&quot;)" transform="rotate(345.66, 206.8, 1777.56)"></rect><circle r="133.33333333333334" cx="232.74" cy="5281.16" stroke="rgba(175, 71, 210, 1)" stroke-width="2.48" stroke-dasharray="3, 3"></circle><rect width="133.4" height="133.4" clip-path="url(&quot;#SvgjsClipPath3408&quot;)" x="1042.68" y="553.13" fill="url(&quot;#SvgjsPattern3409&quot;)" transform="rotate(211.34, 1109.38, 619.83)"></rect><rect width="252" height="252" clip-path="url(&quot;#SvgjsClipPath3410&quot;)" x="0.52" y="813.59" fill="url(&quot;#SvgjsPattern3411&quot;)" transform="rotate(226.79, 126.52, 939.59)"></rect><path d="M1518.67 5587.6L1527.92 5596.45 1521.32 5607.42 1530.57 5616.28 1523.97 5627.25 1533.22 5636.1 1526.62 5647.07M1510.74 5588.66L1519.99 5597.51 1513.39 5608.48 1522.64 5617.33 1516.04 5628.31 1525.29 5637.16 1518.69 5648.13" stroke="rgba(255, 219, 0, 1)" stroke-width="1" stroke-dasharray="3, 3"></path><rect width="1062.72" height="1062.72" clip-path="url(&quot;#SvgjsClipPath3412&quot;)" x="245.29" y="6157.65" fill="url(&quot;#SvgjsPattern3413&quot;)" transform="rotate(250.53, 776.65, 6689.01)"></rect><rect width="84" height="84" clip-path="url(&quot;#SvgjsClipPath3414&quot;)" x="540.65" y="4362.97" fill="url(&quot;#SvgjsPattern3415&quot;)" transform="rotate(150.54, 582.65, 4404.97)"></rect><rect width="744" height="744" clip-path="url(&quot;#SvgjsClipPath3416&quot;)" x="101.52" y="4619.08" fill="url(&quot;#SvgjsPattern3417&quot;)" transform="rotate(116.49, 473.52, 4991.08)"></rect><rect width="960.96" height="960.96" clip-path="url(&quot;#SvgjsClipPath3418&quot;)" x="170.82" y="2324.11" fill="url(&quot;#SvgjsPattern3419&quot;)" transform="rotate(47.46, 651.3, 2804.59)"></rect></g><defs><mask id="SvgjsMask3391"><rect width="1600" height="8000" fill="#ffffff"></rect></mask><pattern x="0" y="0" width="7.82" height="7.82" patternUnits="userSpaceOnUse" id="SvgjsPattern3393"><path d="M3.91 1L3.91 6.82M1 3.91L6.82 3.91" stroke="rgba(255, 143, 0, 1)" fill="none" stroke-width="1"></path></pattern><clipPath id="SvgjsClipPath3392"><circle r="175.95" cx="1501.25" cy="1865.27"></circle></clipPath><pattern x="0" y="0" width="6" height="6" patternUnits="userSpaceOnUse" id="SvgjsPattern3395"><path d="M0 6L3 0L6 6" stroke="rgba(255, 143, 0, 1)" fill="none"></path></pattern><clipPath id="SvgjsClipPath3394"><circle r="15" cx="247.73" cy="3540.36"></circle></clipPath><pattern x="0" y="0" width="672" height="6" patternUnits="userSpaceOnUse" id="SvgjsPattern3397"><rect width="672" height="3" x="0" y="0" fill="rgba(255, 143, 0, 1)"></rect><rect width="672" height="3" x="0" y="3" fill="rgba(0, 0, 0, 0)"></rect></pattern><clipPath id="SvgjsClipPath3396"><circle r="168" cx="317.88" cy="2726.56"></circle></clipPath><pattern x="0" y="0" width="6" height="6" patternUnits="userSpaceOnUse" id="SvgjsPattern3399"><path d="M0 6L3 0L6 6" stroke="rgba(255, 143, 0, 1)" fill="none"></path></pattern><clipPath id="SvgjsClipPath3398"><circle r="180" cx="239.73" cy="2569.88"></circle></clipPath><pattern x="0" y="0" width="6" height="6" patternUnits="userSpaceOnUse" id="SvgjsPattern3401"><path d="M3 1L3 5M1 3L5 3" stroke="rgba(255, 143, 0, 1)" fill="none" stroke-width="1"></path></pattern><clipPath id="SvgjsClipPath3400"><circle r="51" cx="917.81" cy="1965.88"></circle></clipPath><pattern x="0" y="0" width="726.16" height="12.52" patternUnits="userSpaceOnUse" id="SvgjsPattern3403"><rect width="726.16" height="6.26" x="0" y="0" fill="rgba(255, 143, 0, 1)"></rect><rect width="726.16" height="6.26" x="0" y="6.26" fill="rgba(0, 0, 0, 0)"></rect></pattern><clipPath id="SvgjsClipPath3402"><circle r="181.54" cx="1400.93" cy="4316.17"></circle></clipPath><pattern x="0" y="0" width="7.4" height="7.4" patternUnits="userSpaceOnUse" id="SvgjsPattern3405"><path d="M0 7.4L3.7 0L7.4 7.4" stroke="rgba(175, 71, 210, 1)" fill="none"></path></pattern><clipPath id="SvgjsClipPath3404"><circle r="18.5" cx="327.57" cy="1327.77"></circle></clipPath><pattern x="0" y="0" width="960" height="6" patternUnits="userSpaceOnUse" id="SvgjsPattern3407"><rect width="960" height="3" x="0" y="0" fill="rgba(255, 143, 0, 1)"></rect><rect width="960" height="3" x="0" y="3" fill="rgba(0, 0, 0, 0)"></rect></pattern><clipPath id="SvgjsClipPath3406"><circle r="240" cx="206.8" cy="1777.56"></circle></clipPath><pattern x="0" y="0" width="133.4" height="13.34" patternUnits="userSpaceOnUse" id="SvgjsPattern3409"><rect width="133.4" height="6.67" x="0" y="0" fill="rgba(175, 71, 210, 1)"></rect><rect width="133.4" height="6.67" x="0" y="6.67" fill="rgba(0, 0, 0, 0)"></rect></pattern><clipPath id="SvgjsClipPath3408"><circle r="33.35" cx="1109.38" cy="619.83"></circle></clipPath><pattern x="0" y="0" width="6" height="6" patternUnits="userSpaceOnUse" id="SvgjsPattern3411"><path d="M3 1L3 5M1 3L5 3" stroke="rgba(175, 71, 210, 1)" fill="none" stroke-width="1.71"></path></pattern><clipPath id="SvgjsClipPath3410"><circle r="63" cx="126.52" cy="939.59"></circle></clipPath><pattern x="0" y="0" width="9.84" height="9.84" patternUnits="userSpaceOnUse" id="SvgjsPattern3413"><path d="M4.92 1L4.92 8.84M1 4.92L8.84 4.92" stroke="rgba(175, 71, 210, 1)" fill="none" stroke-width="1.43"></path></pattern><clipPath id="SvgjsClipPath3412"><circle r="265.68" cx="776.65" cy="6689.01"></circle></clipPath><pattern x="0" y="0" width="6" height="6" patternUnits="userSpaceOnUse" id="SvgjsPattern3415"><path d="M0 6L3 0L6 6" stroke="rgba(175, 71, 210, 1)" fill="none"></path></pattern><clipPath id="SvgjsClipPath3414"><circle r="21" cx="582.65" cy="4404.97"></circle></clipPath><pattern x="0" y="0" width="744" height="6" patternUnits="userSpaceOnUse" id="SvgjsPattern3417"><rect width="744" height="3" x="0" y="0" fill="rgba(255, 219, 0, 1)"></rect><rect width="744" height="3" x="0" y="3" fill="rgba(0, 0, 0, 0)"></rect></pattern><clipPath id="SvgjsClipPath3416"><circle r="186" cx="473.52" cy="4991.08"></circle></clipPath><pattern x="0" y="0" width="10.92" height="10.92" patternUnits="userSpaceOnUse" id="SvgjsPattern3419"><path d="M0 10.92L5.46 0L10.92 10.92" stroke="rgba(255, 143, 0, 1)" fill="none"></path></pattern><clipPath id="SvgjsClipPath3418"><circle r="240.24" cx="651.3" cy="2804.59"></circle></clipPath></defs></svg>