<svg xmlns="http://www.w3.org/2000/svg" version="1.1" xmlns:xlink="http://www.w3.org/1999/xlink" xmlns:svgjs="http://svgjs.dev/svgjs" width="1600" height="8000" preserveAspectRatio="none" viewBox="0 0 1600 8000"><g mask="url(&quot;#SvgjsMask3629&quot;)" fill="none"><rect width="828" height="828" clip-path="url(&quot;#SvgjsClipPath3630&quot;)" x="-48.51" y="4786.15" fill="url(&quot;#SvgjsPattern3631&quot;)" transform="rotate(67.88, 365.49, 5200.15)"></rect><path d="M1573.45 5852.23L1567.81 5840.73 1577.79 5832.7 1572.15 5821.21 1582.13 5813.18 1576.49 5801.68 1586.47 5793.66" stroke="rgba(255, 219, 0, 1)" stroke-width="1"></path><circle r="168.46640209376048" cx="198.38" cy="3610.81" fill="rgba(175, 71, 210, 1)"></circle><rect width="992.96" height="992.96" clip-path="url(&quot;#SvgjsClipPath3632&quot;)" x="-195.15" y="6368.21" fill="url(&quot;#SvgjsPattern3633&quot;)" transform="rotate(307.97, 301.33, 6864.69)"></rect><rect width="848.16" height="848.16" clip-path="url(&quot;#SvgjsClipPath3634&quot;)" x="-104.02" y="1203.71" fill="url(&quot;#SvgjsPattern3635&quot;)" transform="rotate(228.89, 320.06, 1627.79)"></rect><path d="M706.97 3003.59a5.6 5.6 0 1 0 8.16 7.67 5.6 5.6 0 1 0-8.16-7.67zM718.63 3014.55a5.6 5.6 0 1 0 8.16 7.67 5.6 5.6 0 1 0-8.16-7.67zM730.29 3025.51a5.6 5.6 0 1 0 8.16 7.67 5.6 5.6 0 1 0-8.16-7.67zM741.95 3036.46a5.6 5.6 0 1 0 8.16 7.67 5.6 5.6 0 1 0-8.16-7.67zM672.69 2993.34a5.6 5.6 0 1 0 8.16 7.67 5.6 5.6 0 1 0-8.16-7.67zM684.35 3004.3a5.6 5.6 0 1 0 8.16 7.67 5.6 5.6 0 1 0-8.16-7.67zM696.01 3015.25a5.6 5.6 0 1 0 8.16 7.67 5.6 5.6 0 1 0-8.16-7.67zM707.67 3026.21a5.6 5.6 0 1 0 8.16 7.67 5.6 5.6 0 1 0-8.16-7.67z" fill="rgba(255, 219, 0, 1)"></path><path d="M1443.76 3551.04L1444.22 3563.84 1431.83 3567.09 1432.28 3579.89 1419.9 3583.14 1420.35 3595.94 1407.96 3599.19M1437.34 3546.27L1437.8 3559.07 1425.41 3562.32 1425.86 3575.12 1413.48 3578.37 1413.93 3591.17 1401.54 3594.42M1430.92 3541.5L1431.38 3554.3 1418.99 3557.55 1419.44 3570.35 1407.06 3573.6 1407.51 3586.4 1395.12 3589.65" stroke="rgba(38, 53, 93, 1)" stroke-width="1" stroke-dasharray="3, 2"></path><path d="M205.71 1809.12a5.6 5.6 0 1 0 3.66 10.58 5.6 5.6 0 1 0-3.66-10.58zM210.93 1824.24a5.6 5.6 0 1 0 3.66 10.59 5.6 5.6 0 1 0-3.66-10.59zM216.16 1839.36a5.6 5.6 0 1 0 3.66 10.59 5.6 5.6 0 1 0-3.66-10.59zM221.38 1854.49a5.6 5.6 0 1 0 3.66 10.58 5.6 5.6 0 1 0-3.66-10.58zM180.14 1784.1a5.6 5.6 0 1 0 3.65 10.58 5.6 5.6 0 1 0-3.65-10.58zM185.36 1799.22a5.6 5.6 0 1 0 3.66 10.59 5.6 5.6 0 1 0-3.66-10.59zM190.59 1814.34a5.6 5.6 0 1 0 3.65 10.59 5.6 5.6 0 1 0-3.65-10.59zM195.81 1829.47a5.6 5.6 0 1 0 3.66 10.58 5.6 5.6 0 1 0-3.66-10.58z" fill="rgba(38, 53, 93, 1)"></path><rect width="204.16" height="204.16" clip-path="url(&quot;#SvgjsClipPath3636&quot;)" x="762.46" y="4738.18" fill="url(&quot;#SvgjsPattern3637&quot;)" transform="rotate(3.36, 864.54, 4840.26)"></rect><rect width="630.8" height="630.8" clip-path="url(&quot;#SvgjsClipPath3638&quot;)" x="550.87" y="5820.04" fill="url(&quot;#SvgjsPattern3639&quot;)" transform="rotate(52.77, 866.27, 6135.44)"></rect><path d="M53.05 2066a5.6 5.6 0 1 0 6.59 9.06 5.6 5.6 0 1 0-6.59-9.06zM62.46 2078.94a5.6 5.6 0 1 0 6.59 9.05 5.6 5.6 0 1 0-6.59-9.05zM71.87 2091.88a5.6 5.6 0 1 0 6.59 9.05 5.6 5.6 0 1 0-6.59-9.05zM81.28 2104.82a5.6 5.6 0 1 0 6.59 9.05 5.6 5.6 0 1 0-6.59-9.05z" stroke="rgba(255, 219, 0, 1)" stroke-width="1.79" stroke-dasharray="2, 2"></path><rect width="848.96" height="848.96" clip-path="url(&quot;#SvgjsClipPath3640&quot;)" x="899.13" y="6818.61" fill="url(&quot;#SvgjsPattern3641&quot;)" transform="rotate(204.64, 1323.61, 7243.09)"></rect><path d="M922.1800000000001 7158.28 L1241.45 7006.219999999999L1324.4027913378727 7324.837791337873z" stroke="rgba(38, 53, 93, 1)" stroke-width="2.24" stroke-dasharray="3, 3"></path><rect width="402.56" height="402.56" clip-path="url(&quot;#SvgjsClipPath3642&quot;)" x="-1.87" y="-23.76" fill="url(&quot;#SvgjsPattern3643&quot;)" transform="rotate(344.33, 199.41, 177.52)"></rect><path d="M469.15 3115.18 L801.9200000000001 2629.6699999999996L909.6226407478341 3146.5126407478338z" stroke="rgba(38, 53, 93, 1)" stroke-width="1" stroke-dasharray="3, 3"></path><circle r="214.91789744409238" cx="589.35" cy="2554.25" fill="rgba(175, 71, 210, 1)"></circle><path d="M1142.97 2600.79a5.6 5.6 0 1 0 10.57-3.71 5.6 5.6 0 1 0-10.57 3.71zM1158.07 2595.49a5.6 5.6 0 1 0 10.56-3.71 5.6 5.6 0 1 0-10.56 3.71zM1173.16 2590.19a5.6 5.6 0 1 0 10.57-3.71 5.6 5.6 0 1 0-10.57 3.71zM1188.26 2584.89a5.6 5.6 0 1 0 10.57-3.71 5.6 5.6 0 1 0-10.57 3.71z" stroke="rgba(255, 143, 0, 1)" stroke-width="1.38" stroke-dasharray="4, 4"></path><path d="M1194.26 564.92a5.6 5.6 0 1 0 0.7 11.18 5.6 5.6 0 1 0-0.7-11.18zM1195.27 580.89a5.6 5.6 0 1 0 0.7 11.18 5.6 5.6 0 1 0-0.7-11.18zM1196.27 596.86a5.6 5.6 0 1 0 0.7 11.17 5.6 5.6 0 1 0-0.7-11.17zM1197.27 612.82a5.6 5.6 0 1 0 0.71 11.18 5.6 5.6 0 1 0-0.71-11.18zM1176.28 533.99a5.6 5.6 0 1 0 0.71 11.18 5.6 5.6 0 1 0-0.71-11.18zM1177.29 549.96a5.6 5.6 0 1 0 0.7 11.17 5.6 5.6 0 1 0-0.7-11.17zM1178.29 565.92a5.6 5.6 0 1 0 0.71 11.18 5.6 5.6 0 1 0-0.71-11.18zM1179.3 581.89a5.6 5.6 0 1 0 0.7 11.18 5.6 5.6 0 1 0-0.7-11.18zM1158.31 503.06a5.6 5.6 0 1 0 0.7 11.17 5.6 5.6 0 1 0-0.7-11.17zM1159.31 519.02a5.6 5.6 0 1 0 0.7 11.18 5.6 5.6 0 1 0-0.7-11.18zM1160.31 534.99a5.6 5.6 0 1 0 0.71 11.18 5.6 5.6 0 1 0-0.71-11.18zM1161.32 550.96a5.6 5.6 0 1 0 0.7 11.18 5.6 5.6 0 1 0-0.7-11.18z" fill="rgba(255, 219, 0, 1)"></path><rect width="521.28" height="521.28" clip-path="url(&quot;#SvgjsClipPath3644&quot;)" x="1162.43" y="1201.89" fill="url(&quot;#SvgjsPattern3645&quot;)" transform="rotate(196.59, 1423.07, 1462.53)"></rect><rect width="505.08" height="505.08" clip-path="url(&quot;#SvgjsClipPath3646&quot;)" x="95.95" y="3724.78" fill="url(&quot;#SvgjsPattern3647&quot;)" transform="rotate(115.35, 348.49, 3977.32)"></rect><path d="M1252.21 1016.54 L1077.77 1434.82L989.7887432639261 1050.478743263926z" fill="rgba(255, 143, 0, 1)"></path><rect width="984" height="984" clip-path="url(&quot;#SvgjsClipPath3648&quot;)" x="754.05" y="1462.56" fill="url(&quot;#SvgjsPattern3649&quot;)" transform="rotate(294.51, 1246.05, 1954.56)"></rect><path d="M731.53 4586.67L726.18 4598.3 713.66 4595.64 708.31 4607.28 695.78 4604.62 690.44 4616.26 677.91 4613.6" stroke="rgba(175, 71, 210, 1)" stroke-width="1.19" stroke-dasharray="4, 4"></path></g><defs><mask id="SvgjsMask3629"><rect width="1600" height="8000" fill="#ffffff"></rect></mask><pattern x="0" y="0" width="828" height="6" patternUnits="userSpaceOnUse" id="SvgjsPattern3631"><rect width="828" height="3" x="0" y="0" fill="rgba(255, 143, 0, 1)"></rect><rect width="828" height="3" x="0" y="3" fill="rgba(0, 0, 0, 0)"></rect></pattern><clipPath id="SvgjsClipPath3630"><circle r="207" cx="365.49" cy="5200.15"></circle></clipPath><pattern x="0" y="0" width="992.96" height="8.56" patternUnits="userSpaceOnUse" id="SvgjsPattern3633"><rect width="992.96" height="4.28" x="0" y="0" fill="rgba(175, 71, 210, 1)"></rect><rect width="992.96" height="4.28" x="0" y="4.28" fill="rgba(0, 0, 0, 0)"></rect></pattern><clipPath id="SvgjsClipPath3632"><circle r="248.24" cx="301.33" cy="6864.69"></circle></clipPath><pattern x="0" y="0" width="6.84" height="6.84" patternUnits="userSpaceOnUse" id="SvgjsPattern3635"><path d="M0 6.84L3.42 0L6.84 6.84" stroke="rgba(255, 143, 0, 1)" fill="none"></path></pattern><clipPath id="SvgjsClipPath3634"><circle r="212.04" cx="320.06" cy="1627.79"></circle></clipPath><pattern x="0" y="0" width="12.76" height="12.76" patternUnits="userSpaceOnUse" id="SvgjsPattern3637"><path d="M0 12.76L6.38 0L12.76 12.76" stroke="rgba(38, 53, 93, 1)" fill="none"></path></pattern><clipPath id="SvgjsClipPath3636"><circle r="51.04" cx="864.54" cy="4840.26"></circle></clipPath><pattern x="0" y="0" width="8.3" height="8.3" patternUnits="userSpaceOnUse" id="SvgjsPattern3639"><path d="M4.15 1L4.15 7.300000000000001M1 4.15L7.300000000000001 4.15" stroke="rgba(255, 143, 0, 1)" fill="none" stroke-width="2.18"></path></pattern><clipPath id="SvgjsClipPath3638"><circle r="157.7" cx="866.27" cy="6135.44"></circle></clipPath><pattern x="0" y="0" width="7.58" height="7.58" patternUnits="userSpaceOnUse" id="SvgjsPattern3641"><path d="M3.79 1L3.79 6.58M1 3.79L6.58 3.79" stroke="rgba(255, 219, 0, 1)" fill="none" stroke-width="1.71"></path></pattern><clipPath id="SvgjsClipPath3640"><circle r="212.24" cx="1323.61" cy="7243.09"></circle></clipPath><pattern x="0" y="0" width="11.84" height="11.84" patternUnits="userSpaceOnUse" id="SvgjsPattern3643"><path d="M0 11.84L5.92 0L11.84 11.84" stroke="rgba(38, 53, 93, 1)" fill="none"></path></pattern><clipPath id="SvgjsClipPath3642"><circle r="100.64" cx="199.41" cy="177.52"></circle></clipPath><pattern x="0" y="0" width="521.28" height="7.24" patternUnits="userSpaceOnUse" id="SvgjsPattern3645"><rect width="521.28" height="3.62" x="0" y="0" fill="rgba(255, 143, 0, 1)"></rect><rect width="521.28" height="3.62" x="0" y="3.62" fill="rgba(0, 0, 0, 0)"></rect></pattern><clipPath id="SvgjsClipPath3644"><circle r="130.32" cx="1423.07" cy="1462.53"></circle></clipPath><pattern x="0" y="0" width="505.08" height="10.98" patternUnits="userSpaceOnUse" id="SvgjsPattern3647"><rect width="505.08" height="5.49" x="0" y="0" fill="rgba(255, 219, 0, 1)"></rect><rect width="505.08" height="5.49" x="0" y="5.49" fill="rgba(0, 0, 0, 0)"></rect></pattern><clipPath id="SvgjsClipPath3646"><circle r="126.27" cx="348.49" cy="3977.32"></circle></clipPath><pattern x="0" y="0" width="6" height="6" patternUnits="userSpaceOnUse" id="SvgjsPattern3649"><path d="M0 6L3 0L6 6" stroke="rgba(38, 53, 93, 1)" fill="none"></path></pattern><clipPath id="SvgjsClipPath3648"><circle r="246" cx="1246.05" cy="1954.56"></circle></clipPath></defs></svg>