<svg xmlns="http://www.w3.org/2000/svg" version="1.1" xmlns:xlink="http://www.w3.org/1999/xlink" xmlns:svgjs="http://svgjs.dev/svgjs" width="1600" height="8000" preserveAspectRatio="none" viewBox="0 0 1600 8000"><g mask="url(&quot;#SvgjsMask1070&quot;)" fill="none"><path d="M1470.92 7147.04a94.7 94.7 0 1 0-189.39 1.43z" stroke="rgba(255, 143, 0, 1)"></path><path d="M-17.84 649.34 a59.04 59.04 0 1 0 118.08 0 a59.04 59.04 0 1 0 -118.08 0z" stroke="rgba(255, 143, 0, 1)"></path><path d="M896.47 305.49L985.26 305.49L985.26 310.69L896.47 310.69z" stroke="rgba(38, 53, 93, 1)"></path><path d="M1316.56 2688.27a79.08 79.08 0 1 0-151.11-46.7z" stroke="rgba(255, 143, 0, 1)"></path><path d="M280.93 5506.55 a147 147 0 1 0 294 0 a147 147 0 1 0 -294 0z" fill="rgba(175, 71, 210, 1)"></path><path d="M153.03 3917.63L304.01 3917.63L304.01 4046.22L153.03 4046.22z" fill="rgba(38, 53, 93, 1)"></path><path d="M209.67 6186.65 a156.53 156.53 0 1 0 313.06 0 a156.53 156.53 0 1 0 -313.06 0z" fill="rgba(38, 53, 93, 1)"></path><path d="M1186.18 96.19a99.61 99.61 0 1 0 74.27 184.86z" stroke="rgba(175, 71, 210, 1)"></path><path d="M881.29 71.31 a64.61 64.61 0 1 0 129.22 0 a64.61 64.61 0 1 0 -129.22 0z" fill="rgba(255, 219, 0, 1)"></path><path d="M1343.48 7544.36 a13.89 13.89 0 1 0 27.78 0 a13.89 13.89 0 1 0 -27.78 0z" fill="rgba(175, 71, 210, 1)"></path><path d="M865.54 7206.56L919.21 7206.56L919.21 7220.94L865.54 7220.94z" stroke="rgba(255, 219, 0, 1)"></path><path d="M50.91 4190.84 a69.71 69.71 0 1 0 139.42 0 a69.71 69.71 0 1 0 -139.42 0z" fill="rgba(175, 71, 210, 1)"></path><path d="M78.64 6161a107.69 107.69 0 1 0 19.74-214.47z" fill="rgba(175, 71, 210, 1)"></path><path d="M450.59 767.41 a145.04 145.04 0 1 0 290.08 0 a145.04 145.04 0 1 0 -290.08 0z" fill="rgba(175, 71, 210, 1)"></path><path d="M700.35 2599.57L715.4 2599.57L715.4 2696.5L700.35 2696.5z" fill="rgba(175, 71, 210, 1)"></path><path d="M1230.96 1669.22L1375.99 1669.22L1375.99 1814.25L1230.96 1814.25z" stroke="rgba(175, 71, 210, 1)"></path><path d="M20.12 5150.06a88.38 88.38 0 1 0 163.36 67.51z" fill="rgba(255, 219, 0, 1)"></path><path d="M103.13 785.79L124.49 785.79L124.49 814.61L103.13 814.61z" stroke="rgba(255, 143, 0, 1)"></path><path d="M1442.66 3754.74a25.42 25.42 0 1 0-1.71 50.81z" fill="rgba(175, 71, 210, 1)"></path><path d="M1405.6 2808.89a69.64 69.64 0 1 0-127.49-56.07z" fill="rgba(255, 219, 0, 1)"></path><path d="M628.84 5229.84a48.68 48.68 0 1 0-21.16 95.04z" stroke="rgba(255, 143, 0, 1)"></path><path d="M1029.12 4825.91L1054.32 4825.91L1054.32 4851.11L1029.12 4851.11z" fill="rgba(255, 219, 0, 1)"></path><path d="M374.31 7141.84L440.7 7141.84L440.7 7208.23L374.31 7208.23z" fill="rgba(255, 143, 0, 1)"></path><path d="M367.55 3604.87L500.04 3604.87L500.04 3737.36L367.55 3737.36z" stroke="rgba(255, 143, 0, 1)"></path><path d="M1559.64 2286.16L1675.49 2286.16L1675.49 2402.01L1559.64 2402.01z" stroke="rgba(175, 71, 210, 1)"></path><path d="M991.39 6507.3L1082.42 6507.3L1082.42 6621.38L991.39 6621.38z" stroke="rgba(255, 219, 0, 1)"></path><path d="M99.85 6254.94L200.07 6254.94L200.07 6355.16L99.85 6355.16z" fill="rgba(38, 53, 93, 1)"></path><path d="M328.86 4859.35 a130.44 130.44 0 1 0 260.88 0 a130.44 130.44 0 1 0 -260.88 0z" stroke="rgba(38, 53, 93, 1)"></path><path d="M827.3 5077.4a125.94 125.94 0 1 0 250.5-26.4z" fill="rgba(175, 71, 210, 1)"></path><path d="M727.76 1417.31a63.98 63.98 0 1 0 123.41-33.82z" stroke="rgba(255, 219, 0, 1)"></path><path d="M619.78 2314.43a97.19 97.19 0 1 0 43.2-189.52z" fill="rgba(255, 219, 0, 1)"></path><path d="M659.56 5053.2L684.39 5053.2L684.39 5078.03L659.56 5078.03z" fill="rgba(255, 219, 0, 1)"></path><path d="M1200.76 7743.06 a35.88 35.88 0 1 0 71.76 0 a35.88 35.88 0 1 0 -71.76 0z" stroke="rgba(255, 143, 0, 1)"></path><path d="M1562.58 1885.8a141.56 141.56 0 1 0-53.25-278.07z" fill="rgba(255, 219, 0, 1)"></path><path d="M1318.01 4758.03 a99.13 99.13 0 1 0 198.26 0 a99.13 99.13 0 1 0 -198.26 0z" fill="rgba(255, 143, 0, 1)"></path><path d="M288.07 3204.4a76.95 76.95 0 1 0-107.87 109.77z" fill="rgba(255, 219, 0, 1)"></path><path d="M1152.83 4875.55 a98.8 98.8 0 1 0 197.6 0 a98.8 98.8 0 1 0 -197.6 0z" stroke="rgba(38, 53, 93, 1)"></path><path d="M943.05 7770.72L963.13 7770.72L963.13 7790.8L943.05 7790.8z" stroke="rgba(255, 219, 0, 1)"></path><path d="M772.9 3237.69a111.99 111.99 0 1 0 211.4-74z" stroke="rgba(255, 143, 0, 1)"></path><path d="M762.39 2601.43a126.74 126.74 0 1 0 252.68-20.12z" stroke="rgba(175, 71, 210, 1)"></path><path d="M1104.71 5222.87 a61.25 61.25 0 1 0 122.5 0 a61.25 61.25 0 1 0 -122.5 0z" stroke="rgba(175, 71, 210, 1)"></path><path d="M936.99 3297.05L1092.79 3297.05L1092.79 3452.85L936.99 3452.85z" stroke="rgba(255, 219, 0, 1)"></path><path d="M223.25 3384.09L248.48 3384.09L248.48 3409.32L223.25 3409.32z" stroke="rgba(255, 219, 0, 1)"></path><path d="M1014.6 6019.79 a25.21 25.21 0 1 0 50.42 0 a25.21 25.21 0 1 0 -50.42 0z" stroke="rgba(255, 219, 0, 1)"></path><path d="M885.57 6763.99L929.52 6763.99L929.52 6834.18L885.57 6834.18z" fill="rgba(255, 143, 0, 1)"></path><path d="M191.57 4031.76 a12.54 12.54 0 1 0 25.08 0 a12.54 12.54 0 1 0 -25.08 0z" fill="rgba(38, 53, 93, 1)"></path><path d="M665.36 5580.18L733.57 5580.18L733.57 5680.05L665.36 5680.05z" stroke="rgba(38, 53, 93, 1)"></path><path d="M1228.56 2786.78 a142.8 142.8 0 1 0 285.6 0 a142.8 142.8 0 1 0 -285.6 0z" fill="rgba(175, 71, 210, 1)"></path><path d="M441.42 2097.58L544.21 2097.58L544.21 2200.37L441.42 2200.37z" fill="rgba(38, 53, 93, 1)"></path><path d="M1141.92 1211.49L1298.18 1211.49L1298.18 1367.75L1141.92 1367.75z" fill="rgba(255, 143, 0, 1)"></path><path d="M1299.22 826.81a140.86 140.86 0 1 0-133.76-247.95z" stroke="rgba(38, 53, 93, 1)"></path><path d="M762.27 296.83 a128.84 128.84 0 1 0 257.68 0 a128.84 128.84 0 1 0 -257.68 0z" fill="rgba(255, 143, 0, 1)"></path><path d="M1395.02 6566.52a99.29 99.29 0 1 0 23.6 197.18z" stroke="rgba(255, 219, 0, 1)"></path><path d="M321.67 569.29a29.97 29.97 0 1 0-51.49 30.68z" stroke="rgba(38, 53, 93, 1)"></path><path d="M1188.97 6490.82L1327.29 6490.82L1327.29 6543.03L1188.97 6543.03z" stroke="rgba(255, 219, 0, 1)"></path><path d="M1051.87 7212.2 a134.99 134.99 0 1 0 269.98 0 a134.99 134.99 0 1 0 -269.98 0z" stroke="rgba(255, 143, 0, 1)"></path><path d="M1188.87 6243.97a77.48 77.48 0 1 0-35.01-150.95z" fill="rgba(175, 71, 210, 1)"></path><path d="M1183.87 4078.43a36.93 36.93 0 1 0-17.64 71.72z" fill="rgba(38, 53, 93, 1)"></path><path d="M310.71 6262.11L372.8 6262.11L372.8 6391.1L310.71 6391.1z" fill="rgba(175, 71, 210, 1)"></path><path d="M1318.93 2994.12 a12.4 12.4 0 1 0 24.8 0 a12.4 12.4 0 1 0 -24.8 0z" stroke="rgba(175, 71, 210, 1)"></path><path d="M1081.66 1229.6a92.43 92.43 0 1 0 45.87 179.08z" stroke="rgba(38, 53, 93, 1)"></path><path d="M1356.47 3862.08 a46.11 46.11 0 1 0 92.22 0 a46.11 46.11 0 1 0 -92.22 0z" stroke="rgba(255, 219, 0, 1)"></path><path d="M856.19 4295.64a16.12 16.12 0 1 0 16.95 27.42z" fill="rgba(255, 219, 0, 1)"></path></g><defs><mask id="SvgjsMask1070"><rect width="1600" height="8000" fill="#ffffff"></rect></mask></defs></svg>