<svg xmlns="http://www.w3.org/2000/svg" version="1.1" xmlns:xlink="http://www.w3.org/1999/xlink" xmlns:svgjs="http://svgjs.dev/svgjs" width="1440" height="12000" preserveAspectRatio="none" viewBox="0 0 1440 12000"><g mask="url(&quot;#SvgjsMask1017&quot;)" fill="none"><path d="M1104.36 9609.36L1113.36 9609.36L1113.36 9618.36L1104.36 9618.36z" fill="rgba(255, 219, 0, 1)"></path><path d="M42.99 11643.87 a32.02 32.02 0 1 0 64.04 0 a32.02 32.02 0 1 0 -64.04 0z" fill="rgba(38, 53, 93, 1)"></path><path d="M534.41 5148.28 a20.75 20.75 0 1 0 41.5 0 a20.75 20.75 0 1 0 -41.5 0z" stroke="rgba(255, 143, 0, 1)"></path><path d="M616.41 4440.72 a87.45 87.45 0 1 0 174.9 0 a87.45 87.45 0 1 0 -174.9 0z" fill="rgba(255, 143, 0, 1)"></path><path d="M1014.48 7079.73L1097.49 7079.73L1097.49 7170.09L1014.48 7170.09z" stroke="rgba(175, 71, 210, 1)"></path><path d="M214.28 3794.59a22.53 22.53 0 1 0-17.59-41.49z" stroke="rgba(255, 219, 0, 1)"></path><path d="M1380.21 6624.7L1382.77 6624.7L1382.77 6677.1L1380.21 6677.1z" stroke="rgba(255, 219, 0, 1)"></path><path d="M412.35 9750.78L419.11 9750.78L419.11 9757.54L412.35 9757.54z" fill="rgba(38, 53, 93, 1)"></path><path d="M977.66 11788.74L985.97 11788.74L985.97 11797.05L977.66 11797.05z" stroke="rgba(38, 53, 93, 1)"></path><path d="M745.57 2694.36 a93.74 93.74 0 1 0 187.48 0 a93.74 93.74 0 1 0 -187.48 0z" fill="rgba(38, 53, 93, 1)"></path><path d="M313.35 2500.44a8.09 8.09 0 1 0-15.46-4.77z" fill="rgba(255, 219, 0, 1)"></path><path d="M1396.29 2470.87a47.44 47.44 0 1 0 71.14 62.78z" fill="rgba(255, 143, 0, 1)"></path><path d="M230.82 10232.78L287.44 10232.78L287.44 10314.71L230.82 10314.71z" stroke="rgba(175, 71, 210, 1)"></path><path d="M1274.55 6495.85L1328.22 6495.85L1328.22 6621.07L1274.55 6621.07z" stroke="rgba(255, 219, 0, 1)"></path><path d="M1132.47 10105.85a48.22 48.22 0 1 0-89.98-34.72z" stroke="rgba(255, 219, 0, 1)"></path><path d="M806.47 10215.94L900.17 10215.94L900.17 10309.64L806.47 10309.64z" fill="rgba(255, 219, 0, 1)"></path><path d="M737.38 8634 a50.32 50.32 0 1 0 100.64 0 a50.32 50.32 0 1 0 -100.64 0z" stroke="rgba(255, 143, 0, 1)"></path><path d="M-104.34 11239.32 a114.05 114.05 0 1 0 228.1 0 a114.05 114.05 0 1 0 -228.1 0z" fill="rgba(175, 71, 210, 1)"></path><path d="M774.47 7384.22 a137.63 137.63 0 1 0 275.26 0 a137.63 137.63 0 1 0 -275.26 0z" stroke="rgba(175, 71, 210, 1)"></path><path d="M845.84 7955.96 a118.2 118.2 0 1 0 236.4 0 a118.2 118.2 0 1 0 -236.4 0z" stroke="rgba(255, 143, 0, 1)"></path><path d="M1255.43 1775.16 a39.91 39.91 0 1 0 79.82 0 a39.91 39.91 0 1 0 -79.82 0z" fill="rgba(255, 143, 0, 1)"></path><path d="M333.66 6052.89L339.81 6052.89L339.81 6149.74L333.66 6149.74z" stroke="rgba(255, 143, 0, 1)"></path><path d="M1255.39 10748.46L1257.49 10748.46L1257.49 10791.05L1255.39 10791.05z" stroke="rgba(38, 53, 93, 1)"></path><path d="M307.95 6957.49L378.67 6957.49L378.67 7028.21L307.95 7028.21z" fill="rgba(255, 143, 0, 1)"></path><path d="M74.28 2888.2L167.7 2888.2L167.7 2981.62L74.28 2981.62z" fill="rgba(38, 53, 93, 1)"></path><path d="M525.95 10566.98 a92.72 92.72 0 1 0 185.44 0 a92.72 92.72 0 1 0 -185.44 0z" stroke="rgba(38, 53, 93, 1)"></path><path d="M259.53 8384.8 a123.41 123.41 0 1 0 246.82 0 a123.41 123.41 0 1 0 -246.82 0z" stroke="rgba(255, 143, 0, 1)"></path><path d="M709.06 9859.87L788.86 9859.87L788.86 9939.67L709.06 9939.67z" fill="rgba(255, 143, 0, 1)"></path><path d="M567 670.76L660.21 670.76L660.21 790.02L567 790.02z" stroke="rgba(255, 143, 0, 1)"></path><path d="M645.43 376.34a111.93 111.93 0 1 0-189.44 119.26z" fill="rgba(38, 53, 93, 1)"></path><path d="M1282.61 2327.59a132.76 132.76 0 1 0-30.75-263.73z" fill="rgba(38, 53, 93, 1)"></path><path d="M409.75 3473.64L532.75 3473.64L532.75 3572.18L409.75 3572.18z" fill="rgba(255, 219, 0, 1)"></path><path d="M250.37 7751.71L356.36 7751.71L356.36 7764.96L250.37 7764.96z" stroke="rgba(255, 143, 0, 1)"></path><path d="M969.72 3061.26L1078.39 3061.26L1078.39 3169.93L969.72 3169.93z" fill="rgba(255, 143, 0, 1)"></path><path d="M1514.08 1454.41a118.75 118.75 0 1 0-236.14 25.37z" stroke="rgba(175, 71, 210, 1)"></path><path d="M564.84 7581.81 a126.47 126.47 0 1 0 252.94 0 a126.47 126.47 0 1 0 -252.94 0z" stroke="rgba(38, 53, 93, 1)"></path><path d="M771.72 3751.69a62.49 62.49 0 1 0 18.67 123.57z" fill="rgba(255, 143, 0, 1)"></path><path d="M844.39 4657.94L952.88 4657.94L952.88 4766.43L844.39 4766.43z" fill="rgba(255, 219, 0, 1)"></path><path d="M213.55 5166.65L282.89 5166.65L282.89 5235.99L213.55 5235.99z" fill="rgba(38, 53, 93, 1)"></path><path d="M872.03 11951.06L968.59 11951.06L968.59 12036.99L872.03 12036.99z" fill="rgba(255, 219, 0, 1)"></path><path d="M1115.69 321.84a139.03 139.03 0 1 0-129.24 246.19z" stroke="rgba(175, 71, 210, 1)"></path><path d="M1210.16 9059.37L1217.15 9059.37L1217.15 9066.36L1210.16 9066.36z" fill="rgba(255, 143, 0, 1)"></path><path d="M296.37 1344.78L387.76 1344.78L387.76 1436.17L296.37 1436.17z" stroke="rgba(38, 53, 93, 1)"></path><path d="M1252.68 7274.81a2.34 2.34 0 1 0-1.63-4.39z" fill="rgba(255, 219, 0, 1)"></path><path d="M675.35 3127.88L723.03 3127.88L723.03 3230.07L675.35 3230.07z" stroke="rgba(255, 219, 0, 1)"></path><path d="M1095.82 7819.83a108.38 108.38 0 1 0 177.72-124.08z" stroke="rgba(38, 53, 93, 1)"></path><path d="M660.88 7648L765.94 7648L765.94 7769.57L660.88 7769.57z" stroke="rgba(255, 219, 0, 1)"></path><path d="M1078.51 7407.97L1169.17 7407.97L1169.17 7454.9L1078.51 7454.9z" stroke="rgba(255, 219, 0, 1)"></path><path d="M1032.57 2869.81a114.78 114.78 0 1 0 58.83-221.89z" stroke="rgba(175, 71, 210, 1)"></path><path d="M747.42 7145.29L754.38 7145.29L754.38 7152.25L747.42 7152.25z" fill="rgba(175, 71, 210, 1)"></path><path d="M1080.45 6317.72L1180.06 6317.72L1180.06 6424.47L1080.45 6424.47z" fill="rgba(38, 53, 93, 1)"></path><path d="M91.78 1900.06L194.53 1900.06L194.53 2002.81L91.78 2002.81z" fill="rgba(255, 219, 0, 1)"></path><path d="M1028.14 2332.98 a6.75 6.75 0 1 0 13.5 0 a6.75 6.75 0 1 0 -13.5 0z" stroke="rgba(255, 143, 0, 1)"></path><path d="M1342.66 1049.94 a42.56 42.56 0 1 0 85.12 0 a42.56 42.56 0 1 0 -85.12 0z" stroke="rgba(255, 219, 0, 1)"></path><path d="M825.46 8528.52a8.8 8.8 0 1 0-12.45 12.43z" fill="rgba(38, 53, 93, 1)"></path><path d="M560.07 2870.63a108.42 108.42 0 1 0 76.42-202.93z" stroke="rgba(38, 53, 93, 1)"></path><path d="M768.4 468.24L839.17 468.24L839.17 539.01L768.4 539.01z" fill="rgba(255, 219, 0, 1)"></path><path d="M1040.67 1543L1129.5 1543L1129.5 1543.05L1040.67 1543.05z" fill="rgba(38, 53, 93, 1)"></path><path d="M245.9 3404.21L287.32 3404.21L287.32 3445.63L245.9 3445.63z" stroke="rgba(175, 71, 210, 1)"></path><path d="M1084.13 6436.48a61.35 61.35 0 1 0 102.18 67.92z" stroke="rgba(38, 53, 93, 1)"></path><path d="M1343.14 11632.89L1404.9 11632.89L1404.9 11645.38L1343.14 11645.38z" fill="rgba(255, 219, 0, 1)"></path><path d="M384.2 344.1L520.24 344.1L520.24 480.14L384.2 480.14z" fill="rgba(255, 143, 0, 1)"></path><path d="M1.68 11542.99 a10.27 10.27 0 1 0 20.54 0 a10.27 10.27 0 1 0 -20.54 0z" stroke="rgba(255, 143, 0, 1)"></path><path d="M1114 1532.49L1124.27 1532.49L1124.27 1542.76L1114 1542.76z" stroke="rgba(38, 53, 93, 1)"></path><path d="M418.26 752.22 a61.14 61.14 0 1 0 122.28 0 a61.14 61.14 0 1 0 -122.28 0z" fill="rgba(255, 219, 0, 1)"></path><path d="M1151.28 2176.48L1218.79 2176.48L1218.79 2243.99L1151.28 2243.99z" fill="rgba(255, 143, 0, 1)"></path><path d="M1129.26 11096.7L1185.84 11096.7L1185.84 11153.28L1129.26 11153.28z" stroke="rgba(38, 53, 93, 1)"></path><path d="M172.47 3683.67L228.44 3683.67L228.44 3739.64L172.47 3739.64z" fill="rgba(38, 53, 93, 1)"></path><path d="M470.88 6185.37L504.44 6185.37L504.44 6218.93L470.88 6218.93z" stroke="rgba(38, 53, 93, 1)"></path><path d="M561.99 1926.92 a65.05 65.05 0 1 0 130.1 0 a65.05 65.05 0 1 0 -130.1 0z" fill="rgba(255, 219, 0, 1)"></path><path d="M577.49 3129.81L664.37 3129.81L664.37 3202.35L577.49 3202.35z" stroke="rgba(38, 53, 93, 1)"></path><path d="M1196.88 128.03 a94.46 94.46 0 1 0 188.92 0 a94.46 94.46 0 1 0 -188.92 0z" fill="rgba(175, 71, 210, 1)"></path><path d="M122.59 6050.89L153.39 6050.89L153.39 6081.69L122.59 6081.69z" stroke="rgba(255, 219, 0, 1)"></path><path d="M1176.19 9388.64 a55.51 55.51 0 1 0 111.02 0 a55.51 55.51 0 1 0 -111.02 0z" fill="rgba(255, 219, 0, 1)"></path><path d="M1350.88 9131.72L1431.69 9131.72L1431.69 9212.53L1350.88 9212.53z" stroke="rgba(255, 143, 0, 1)"></path><path d="M752.79 3785.75 a17.73 17.73 0 1 0 35.46 0 a17.73 17.73 0 1 0 -35.46 0z" fill="rgba(175, 71, 210, 1)"></path><path d="M1097.76 11428.79L1220.75 11428.79L1220.75 11551.78L1097.76 11551.78z" fill="rgba(255, 143, 0, 1)"></path><path d="M778.74 4532.17a71.59 71.59 0 1 0-118.01 81.08z" stroke="rgba(38, 53, 93, 1)"></path><path d="M1074.55 3030.56L1203.02 3030.56L1203.02 3173.21L1074.55 3173.21z" stroke="rgba(175, 71, 210, 1)"></path><path d="M1044.85 6343.91L1111.37 6343.91L1111.37 6485.66L1044.85 6485.66z" fill="rgba(38, 53, 93, 1)"></path><path d="M830.99 9492.14L899.21 9492.14L899.21 9560.36L830.99 9560.36z" stroke="rgba(38, 53, 93, 1)"></path><path d="M785.94 7682.47 a12.44 12.44 0 1 0 24.88 0 a12.44 12.44 0 1 0 -24.88 0z" fill="rgba(38, 53, 93, 1)"></path><path d="M641.24 8892.95L654.78 8892.95L654.78 8948.65L641.24 8948.65z" stroke="rgba(255, 219, 0, 1)"></path><path d="M420.92 9214.39 a117.18 117.18 0 1 0 234.36 0 a117.18 117.18 0 1 0 -234.36 0z" stroke="rgba(255, 219, 0, 1)"></path><path d="M470.92 4043.85a4.15 4.15 0 1 0-5.87-5.86z" fill="rgba(38, 53, 93, 1)"></path><path d="M1394.82 7952L1495.98 7952L1495.98 7958.82L1394.82 7958.82z" fill="rgba(255, 143, 0, 1)"></path><path d="M171.22 3671.31L233.89 3671.31L233.89 3775.81L171.22 3775.81z" fill="rgba(255, 143, 0, 1)"></path><path d="M215.25 9306.4 a68.82 68.82 0 1 0 137.64 0 a68.82 68.82 0 1 0 -137.64 0z" stroke="rgba(175, 71, 210, 1)"></path><path d="M562 6740.25 a45.99 45.99 0 1 0 91.98 0 a45.99 45.99 0 1 0 -91.98 0z" fill="rgba(38, 53, 93, 1)"></path><path d="M1351.81 8080.5 a9.17 9.17 0 1 0 18.34 0 a9.17 9.17 0 1 0 -18.34 0z" stroke="rgba(255, 143, 0, 1)"></path><path d="M881.64 332.94 a38.49 38.49 0 1 0 76.98 0 a38.49 38.49 0 1 0 -76.98 0z" stroke="rgba(255, 143, 0, 1)"></path><path d="M978.39 6866.57L1034.57 6866.57L1034.57 6971.72L978.39 6971.72z" fill="rgba(175, 71, 210, 1)"></path><path d="M1036.36 9689.82L1037.97 9689.82L1037.97 9775.52L1036.36 9775.52z" fill="rgba(255, 143, 0, 1)"></path><path d="M686.73 7719.34L810.53 7719.34L810.53 7860.09L686.73 7860.09z" stroke="rgba(175, 71, 210, 1)"></path><path d="M858.36 3300.79a97.65 97.65 0 1 0 83.51-176.54z" stroke="rgba(255, 143, 0, 1)"></path><path d="M890.42 6141.93 a22.29 22.29 0 1 0 44.58 0 a22.29 22.29 0 1 0 -44.58 0z" stroke="rgba(255, 143, 0, 1)"></path><path d="M664.82 6560.52L690.28 6560.52L690.28 6585.98L664.82 6585.98z" fill="rgba(255, 219, 0, 1)"></path><path d="M145.54 8411.12a87.84 87.84 0 1 0 22.04-174.29z" stroke="rgba(255, 219, 0, 1)"></path><path d="M1337.99-67.78a128.74 128.74 0 1 0-132.63 220.7z" fill="rgba(38, 53, 93, 1)"></path><path d="M940.38 8165.29L1018.11 8165.29L1018.11 8211.17L940.38 8211.17z" fill="rgba(255, 143, 0, 1)"></path><path d="M613.51 469.46 a91.7 91.7 0 1 0 183.4 0 a91.7 91.7 0 1 0 -183.4 0z" stroke="rgba(175, 71, 210, 1)"></path><path d="M95.47 5238.24 a60 60 0 1 0 120 0 a60 60 0 1 0 -120 0z" fill="rgba(38, 53, 93, 1)"></path><path d="M369.51 6719.38 a82.42 82.42 0 1 0 164.84 0 a82.42 82.42 0 1 0 -164.84 0z" stroke="rgba(38, 53, 93, 1)"></path><path d="M1263.52 1121.87L1392.02 1121.87L1392.02 1250.37L1263.52 1250.37z" fill="rgba(38, 53, 93, 1)"></path><path d="M1042.36 7585.45L1111.13 7585.45L1111.13 7654.22L1042.36 7654.22z" fill="rgba(38, 53, 93, 1)"></path></g><defs><mask id="SvgjsMask1017"><rect width="1440" height="12000" fill="#ffffff"></rect></mask></defs></svg>