<svg xmlns="http://www.w3.org/2000/svg" version="1.1" xmlns:xlink="http://www.w3.org/1999/xlink" xmlns:svgjs="http://svgjs.dev/svgjs" width="1440" height="20000" preserveAspectRatio="none" viewBox="0 0 1440 20000"><g mask="url(&quot;#SvgjsMask1080&quot;)" fill="none"><path d="M90.56 2286.71L153.16 2286.71L153.16 2349.31L90.56 2349.31z" fill="rgba(255, 143, 0, 1)"></path><path d="M273.36 10486.26a81.82 81.82 0 1 0-88.07-137.91z" stroke="rgba(255, 219, 0, 1)"></path><path d="M1239.24 4804.38a117.78 117.78 0 1 0 208.4 109.82z" stroke="rgba(175, 71, 210, 1)"></path><path d="M1203.99 14839.07L1222.45 14839.07L1222.45 14901.62L1203.99 14901.62z" stroke="rgba(175, 71, 210, 1)"></path><path d="M726.27 4453.37L850.9 4453.37L850.9 4578L726.27 4578z" stroke="rgba(255, 143, 0, 1)"></path><path d="M1185.02 15373.03a141.86 141.86 0 1 0 157.51 235.98z" stroke="rgba(255, 219, 0, 1)"></path><path d="M905.59 19597.14 a95.44 95.44 0 1 0 190.88 0 a95.44 95.44 0 1 0 -190.88 0z" fill="rgba(255, 143, 0, 1)"></path><path d="M664.78 14894.42L779.61 14894.42L779.61 14993.42L664.78 14993.42z" fill="rgba(255, 219, 0, 1)"></path><path d="M1386.11 1849.88L1448.39 1849.88L1448.39 1912.16L1386.11 1912.16z" stroke="rgba(255, 219, 0, 1)"></path><path d="M1068.34 8551.42L1130.1 8551.42L1130.1 8693.84L1068.34 8693.84z" fill="rgba(175, 71, 210, 1)"></path><path d="M231.15 2408.85a95.36 95.36 0 1 0 123.2 145.59z" stroke="rgba(175, 71, 210, 1)"></path><path d="M185.44 8457.15a23.44 23.44 0 1 0-37.77 27.76z" stroke="rgba(255, 143, 0, 1)"></path><path d="M521.26 3198.12a44.76 44.76 0 1 0-14.05 88.41z" stroke="rgba(175, 71, 210, 1)"></path><path d="M923.71 4939.91a40.26 40.26 0 1 0 11.16-79.75z" fill="rgba(175, 71, 210, 1)"></path><path d="M8.19 15506.15L13.8 15506.15L13.8 15605.35L8.19 15605.35z" fill="rgba(175, 71, 210, 1)"></path><path d="M654.02 14568.99 a18.47 18.47 0 1 0 36.94 0 a18.47 18.47 0 1 0 -36.94 0z" stroke="rgba(38, 53, 93, 1)"></path><path d="M450.2 10077.75 a138.79 138.79 0 1 0 277.58 0 a138.79 138.79 0 1 0 -277.58 0z" fill="rgba(255, 219, 0, 1)"></path><path d="M818.98 9174.42a0.26 0.26 0 1 0 0.46-0.23z" fill="rgba(175, 71, 210, 1)"></path><path d="M1425.17 16418.77L1506.39 16418.77L1506.39 16499.99L1425.17 16499.99z" fill="rgba(255, 143, 0, 1)"></path><path d="M724.37 11761.71L729.83 11761.71L729.83 11775.78L724.37 11775.78z" fill="rgba(255, 219, 0, 1)"></path><path d="M490.39 115.65L624.74 115.65L624.74 250L490.39 250z" stroke="rgba(175, 71, 210, 1)"></path><path d="M1426.19 17925.59L1547.07 17925.59L1547.07 18046.47L1426.19 18046.47z" stroke="rgba(38, 53, 93, 1)"></path><path d="M861.17 14212.72a138.17 138.17 0 1 0 273.06-42.48z" stroke="rgba(255, 143, 0, 1)"></path><path d="M379.82 16695.78L515.85 16695.78L515.85 16831.81L379.82 16831.81z" fill="rgba(255, 143, 0, 1)"></path><path d="M1145.74 19294.02 a86.04 86.04 0 1 0 172.08 0 a86.04 86.04 0 1 0 -172.08 0z" stroke="rgba(38, 53, 93, 1)"></path><path d="M1418.74 3814.96L1467.7 3814.96L1467.7 3863.92L1418.74 3863.92z" stroke="rgba(255, 143, 0, 1)"></path><path d="M843.13 4165.51 a85.69 85.69 0 1 0 171.38 0 a85.69 85.69 0 1 0 -171.38 0z" stroke="rgba(175, 71, 210, 1)"></path><path d="M1307.46 19016.84 a49.57 49.57 0 1 0 99.14 0 a49.57 49.57 0 1 0 -99.14 0z" fill="rgba(38, 53, 93, 1)"></path><path d="M1357.88 4262.95L1486.68 4262.95L1486.68 4387.97L1357.88 4387.97z" stroke="rgba(38, 53, 93, 1)"></path><path d="M1071.34 9665.27 a103.71 103.71 0 1 0 207.42 0 a103.71 103.71 0 1 0 -207.42 0z" fill="rgba(255, 219, 0, 1)"></path><path d="M1221.99 10729.74L1356.57 10729.74L1356.57 10864.32L1221.99 10864.32z" fill="rgba(255, 219, 0, 1)"></path><path d="M1103.68 7370.61a140.18 140.18 0 1 0 108.3 258.6z" fill="rgba(255, 143, 0, 1)"></path><path d="M96.09 15303.21 a38.94 38.94 0 1 0 77.88 0 a38.94 38.94 0 1 0 -77.88 0z" stroke="rgba(255, 219, 0, 1)"></path><path d="M946.79 15219.64 a90.16 90.16 0 1 0 180.32 0 a90.16 90.16 0 1 0 -180.32 0z" stroke="rgba(255, 219, 0, 1)"></path><path d="M675.55 7376.88L785.61 7376.88L785.61 7382.86L675.55 7382.86z" fill="rgba(38, 53, 93, 1)"></path><path d="M223.52 18450.9L354.47 18450.9L354.47 18581.85L223.52 18581.85z" stroke="rgba(255, 219, 0, 1)"></path><path d="M474.88 15503.82 a137.64 137.64 0 1 0 275.28 0 a137.64 137.64 0 1 0 -275.28 0z" fill="rgba(255, 219, 0, 1)"></path><path d="M569.09 2663.16a26.18 26.18 0 1 0 33.22-40.47z" stroke="rgba(255, 219, 0, 1)"></path><path d="M345.16 8046.49L408.9 8046.49L408.9 8110.23L345.16 8110.23z" fill="rgba(255, 143, 0, 1)"></path><path d="M1128.56 12258.56a3.42 3.42 0 1 0 6.72 1.3z" stroke="rgba(175, 71, 210, 1)"></path><path d="M638.4 9644.36a125.65 125.65 0 1 0-178.7-176.69z" stroke="rgba(255, 143, 0, 1)"></path><path d="M99.53 18654.71a98.4 98.4 0 1 0-22.97 195.46z" fill="rgba(175, 71, 210, 1)"></path><path d="M328.22 1275.45a93.36 93.36 0 1 0-182.14 41.1z" fill="rgba(255, 219, 0, 1)"></path><path d="M1125.29 3890.96L1154.49 3890.96L1154.49 3933.88L1125.29 3933.88z" fill="rgba(255, 143, 0, 1)"></path><path d="M1307.64 5476.29a115.69 115.69 0 1 0-225.32 52.62z" stroke="rgba(255, 219, 0, 1)"></path><path d="M1141.79 12053.19L1154.21 12053.19L1154.21 12065.61L1141.79 12065.61z" stroke="rgba(175, 71, 210, 1)"></path><path d="M478.23 7027.28 a6.19 6.19 0 1 0 12.38 0 a6.19 6.19 0 1 0 -12.38 0z" stroke="rgba(175, 71, 210, 1)"></path><path d="M709.75 7170.15 a101.71 101.71 0 1 0 203.42 0 a101.71 101.71 0 1 0 -203.42 0z" fill="rgba(175, 71, 210, 1)"></path><path d="M1420.65 14216.45L1540.13 14216.45L1540.13 14335.93L1420.65 14335.93z" stroke="rgba(255, 219, 0, 1)"></path><path d="M49.69 2826.68a96.09 96.09 0 1 0 88.98 170.34z" stroke="rgba(38, 53, 93, 1)"></path><path d="M1147.39 2680.8L1224.03 2680.8L1224.03 2706.59L1147.39 2706.59z" stroke="rgba(38, 53, 93, 1)"></path><path d="M1238.4 6711.22L1341.81 6711.22L1341.81 6827.66L1238.4 6827.66z" fill="rgba(255, 219, 0, 1)"></path><path d="M130.17 11769.57L176.93 11769.57L176.93 11793.57L130.17 11793.57z" fill="rgba(255, 143, 0, 1)"></path><path d="M1222.62 5498.81L1269.18 5498.81L1269.18 5545.37L1222.62 5545.37z" fill="rgba(38, 53, 93, 1)"></path><path d="M624.56 14709.48a115.49 115.49 0 1 0-70.07-220.1z" stroke="rgba(255, 143, 0, 1)"></path><path d="M346.24 7288.18a50.18 50.18 0 1 0 97.63 23.25z" fill="rgba(175, 71, 210, 1)"></path><path d="M453.62 7025.79L528.7 7025.79L528.7 7110.52L453.62 7110.52z" stroke="rgba(175, 71, 210, 1)"></path><path d="M32.94 159.18L133.6 159.18L133.6 259.84L32.94 259.84z" fill="rgba(255, 143, 0, 1)"></path><path d="M1013.11 10299.88L1146.75 10299.88L1146.75 10431.64L1013.11 10431.64z" stroke="rgba(255, 143, 0, 1)"></path><path d="M267.95 711.75 a64.33 64.33 0 1 0 128.66 0 a64.33 64.33 0 1 0 -128.66 0z" fill="rgba(255, 219, 0, 1)"></path><path d="M903.08 12796.81L924.48 12796.81L924.48 12823.85L903.08 12823.85z" fill="rgba(255, 143, 0, 1)"></path><path d="M310.5 5799.15 a18.41 18.41 0 1 0 36.82 0 a18.41 18.41 0 1 0 -36.82 0z" fill="rgba(255, 219, 0, 1)"></path><path d="M1271.77 5127.07 a84.15 84.15 0 1 0 168.3 0 a84.15 84.15 0 1 0 -168.3 0z" stroke="rgba(255, 143, 0, 1)"></path><path d="M1396.7 2371.34L1479.14 2371.34L1479.14 2412.18L1396.7 2412.18z" stroke="rgba(38, 53, 93, 1)"></path><path d="M347.66 9723.76L437.21 9723.76L437.21 9731.88L347.66 9731.88z" fill="rgba(255, 219, 0, 1)"></path><path d="M997.6 14246.7a115.76 115.76 0 1 0 102.13 207.77z" fill="rgba(255, 219, 0, 1)"></path><path d="M1098.41 4991.52 a107.76 107.76 0 1 0 215.52 0 a107.76 107.76 0 1 0 -215.52 0z" stroke="rgba(175, 71, 210, 1)"></path><path d="M929.68 13147.22L994.52 13147.22L994.52 13212.06L929.68 13212.06z" stroke="rgba(255, 143, 0, 1)"></path><path d="M795.44 3002.96L868.45 3002.96L868.45 3031.91L795.44 3031.91z" stroke="rgba(255, 143, 0, 1)"></path><path d="M825.01 5228.27 a119.3 119.3 0 1 0 238.6 0 a119.3 119.3 0 1 0 -238.6 0z" fill="rgba(38, 53, 93, 1)"></path><path d="M1437.55 6702.03L1503.89 6702.03L1503.89 6757.1L1437.55 6757.1z" stroke="rgba(255, 219, 0, 1)"></path><path d="M261.35 4817.53L371.98 4817.53L371.98 4928.16L261.35 4928.16z" fill="rgba(38, 53, 93, 1)"></path><path d="M1416.19 8810.89L1495.83 8810.89L1495.83 8953.51L1416.19 8953.51z" fill="rgba(175, 71, 210, 1)"></path><path d="M742.2 489.62a91.51 91.51 0 1 0 4.15-182.97z" fill="rgba(38, 53, 93, 1)"></path><path d="M895.77 1985.72L951.19 1985.72L951.19 1996.16L895.77 1996.16z" stroke="rgba(255, 219, 0, 1)"></path><path d="M806.65 8030.5 a65.74 65.74 0 1 0 131.48 0 a65.74 65.74 0 1 0 -131.48 0z" fill="rgba(175, 71, 210, 1)"></path><path d="M640.34 7288.96 a33.12 33.12 0 1 0 66.24 0 a33.12 33.12 0 1 0 -66.24 0z" fill="rgba(255, 143, 0, 1)"></path><path d="M1246.75 1771.91 a101.78 101.78 0 1 0 203.56 0 a101.78 101.78 0 1 0 -203.56 0z" fill="rgba(175, 71, 210, 1)"></path><path d="M177.63 17108.2L192.93 17108.2L192.93 17122.55L177.63 17122.55z" fill="rgba(38, 53, 93, 1)"></path><path d="M440.86 7534.06 a123.85 123.85 0 1 0 247.7 0 a123.85 123.85 0 1 0 -247.7 0z" stroke="rgba(38, 53, 93, 1)"></path><path d="M816.59 14219.18L943.12 14219.18L943.12 14279.75L816.59 14279.75z" fill="rgba(255, 219, 0, 1)"></path><path d="M1239.61 19424.94L1250.41 19424.94L1250.41 19435.74L1239.61 19435.74z" fill="rgba(175, 71, 210, 1)"></path><path d="M713.84 10680.24L763.94 10680.24L763.94 10718.44L713.84 10718.44z" stroke="rgba(175, 71, 210, 1)"></path><path d="M307.85 1638.13L310.93 1638.13L310.93 1695.25L307.85 1695.25z" fill="rgba(38, 53, 93, 1)"></path><path d="M221.57 18523.7L308.07 18523.7L308.07 18576.15L221.57 18576.15z" stroke="rgba(255, 143, 0, 1)"></path><path d="M885.57 2999.1 a129.39 129.39 0 1 0 258.78 0 a129.39 129.39 0 1 0 -258.78 0z" stroke="rgba(255, 219, 0, 1)"></path><path d="M655.79 15408.95a32.33 32.33 0 1 0-44.71 46.71z" stroke="rgba(175, 71, 210, 1)"></path><path d="M104.42 16074.33L180.56 16074.33L180.56 16150.47L104.42 16150.47z" stroke="rgba(255, 219, 0, 1)"></path><path d="M1110.54 17448.61 a66.35 66.35 0 1 0 132.7 0 a66.35 66.35 0 1 0 -132.7 0z" stroke="rgba(175, 71, 210, 1)"></path><path d="M394.96 2090.91L536.75 2090.91L536.75 2232.7L394.96 2232.7z" stroke="rgba(255, 219, 0, 1)"></path><path d="M558.22 9003.83a60.62 60.62 0 1 0-112.57-45.03z" stroke="rgba(255, 219, 0, 1)"></path><path d="M1215.69 832.73a104.75 104.75 0 1 0-161.98-132.86z" stroke="rgba(175, 71, 210, 1)"></path><path d="M204.89 8400.25L231.53 8400.25L231.53 8542.5L204.89 8542.5z" stroke="rgba(175, 71, 210, 1)"></path><path d="M935.82 11427.28a122.95 122.95 0 1 0-9.92 245.7z" stroke="rgba(175, 71, 210, 1)"></path><path d="M765.47 8003.26L777.68 8003.26L777.68 8015.47L765.47 8015.47z" stroke="rgba(255, 143, 0, 1)"></path><path d="M1087.31 16536.7 a3.84 3.84 0 1 0 7.68 0 a3.84 3.84 0 1 0 -7.68 0z" stroke="rgba(175, 71, 210, 1)"></path><path d="M704.29 13175.53 a60.95 60.95 0 1 0 121.9 0 a60.95 60.95 0 1 0 -121.9 0z" fill="rgba(175, 71, 210, 1)"></path><path d="M753.9 4820.33 a24.02 24.02 0 1 0 48.04 0 a24.02 24.02 0 1 0 -48.04 0z" stroke="rgba(38, 53, 93, 1)"></path><path d="M96.06 4513.59 a43.61 43.61 0 1 0 87.22 0 a43.61 43.61 0 1 0 -87.22 0z" fill="rgba(175, 71, 210, 1)"></path><path d="M759.63 15276.66L761.77 15276.66L761.77 15400.32L759.63 15400.32z" fill="rgba(175, 71, 210, 1)"></path><path d="M406.69 8670.54L515.23 8670.54L515.23 8779.08L406.69 8779.08z" fill="rgba(38, 53, 93, 1)"></path><path d="M46.6 16481.62L89.01 16481.62L89.01 16595.12L46.6 16595.12z" fill="rgba(38, 53, 93, 1)"></path><path d="M1233.93 12806.26 a129.18 129.18 0 1 0 258.36 0 a129.18 129.18 0 1 0 -258.36 0z" stroke="rgba(175, 71, 210, 1)"></path><path d="M572.24 17333.04 a96.7 96.7 0 1 0 193.4 0 a96.7 96.7 0 1 0 -193.4 0z" fill="rgba(38, 53, 93, 1)"></path><path d="M736.37 19962.19L853.63 19962.19L853.63 20079.45L736.37 20079.45z" fill="rgba(255, 219, 0, 1)"></path><path d="M716.23 16454.86L796.51 16454.86L796.51 16535.14L716.23 16535.14z" stroke="rgba(255, 219, 0, 1)"></path><path d="M1102.12 15167.76L1114.7 15167.76L1114.7 15180.34L1102.12 15180.34z" stroke="rgba(38, 53, 93, 1)"></path><path d="M825.46 7309.58L872.33 7309.58L872.33 7356.45L825.46 7356.45z" stroke="rgba(38, 53, 93, 1)"></path><path d="M1026.51 4388.84a115.59 115.59 0 1 0-45.86 226.59z" fill="rgba(255, 143, 0, 1)"></path><path d="M766.65 6069.84 a62.29 62.29 0 1 0 124.58 0 a62.29 62.29 0 1 0 -124.58 0z" stroke="rgba(255, 143, 0, 1)"></path><path d="M1277.54 5996.14 a52.94 52.94 0 1 0 105.88 0 a52.94 52.94 0 1 0 -105.88 0z" stroke="rgba(38, 53, 93, 1)"></path><path d="M726.56 9943.36L812.99 9943.36L812.99 9988.92L726.56 9988.92z" stroke="rgba(175, 71, 210, 1)"></path><path d="M685.15 6338.23L822.98 6338.23L822.98 6344.03L685.15 6344.03z" stroke="rgba(38, 53, 93, 1)"></path><path d="M923.11 15792.15L1019.94 15792.15L1019.94 15853.95L923.11 15853.95z" fill="rgba(255, 219, 0, 1)"></path><path d="M822.41 5930.61 a41.99 41.99 0 1 0 83.98 0 a41.99 41.99 0 1 0 -83.98 0z" stroke="rgba(175, 71, 210, 1)"></path><path d="M303.87 4397.7a50.16 50.16 0 1 0-99.82 10.06z" stroke="rgba(255, 143, 0, 1)"></path><path d="M1017.29 16052.14 a9.89 9.89 0 1 0 19.78 0 a9.89 9.89 0 1 0 -19.78 0z" fill="rgba(175, 71, 210, 1)"></path><path d="M362.59 5611.13a54.25 54.25 0 1 0 108.12 9.04z" stroke="rgba(175, 71, 210, 1)"></path><path d="M585.95 11071.7 a134.57 134.57 0 1 0 269.14 0 a134.57 134.57 0 1 0 -269.14 0z" stroke="rgba(255, 143, 0, 1)"></path><path d="M1305.33 19009.8L1395.17 19009.8L1395.17 19056.65L1305.33 19056.65z" fill="rgba(38, 53, 93, 1)"></path><path d="M92.67 7658.13 a92.92 92.92 0 1 0 185.84 0 a92.92 92.92 0 1 0 -185.84 0z" stroke="rgba(255, 219, 0, 1)"></path><path d="M720.11 4400.03a125.91 125.91 0 1 0-116.61-223.19z" fill="rgba(255, 219, 0, 1)"></path><path d="M654.78 19950.13a89.7 89.7 0 1 0 159.58 81.95z" fill="rgba(255, 143, 0, 1)"></path><path d="M225.15 2751.86 a79.59 79.59 0 1 0 159.18 0 a79.59 79.59 0 1 0 -159.18 0z" stroke="rgba(255, 219, 0, 1)"></path><path d="M834.29 18598.11 a20.25 20.25 0 1 0 40.5 0 a20.25 20.25 0 1 0 -40.5 0z" stroke="rgba(175, 71, 210, 1)"></path><path d="M1436.41 12471.65a69.68 69.68 0 1 0-139.33-2.97z" fill="rgba(38, 53, 93, 1)"></path><path d="M975.38 10904.38L977.45 10904.38L977.45 11015.5L975.38 11015.5z" stroke="rgba(255, 143, 0, 1)"></path><path d="M97.14 6711.56L232.66 6711.56L232.66 6766.22L97.14 6766.22z" fill="rgba(175, 71, 210, 1)"></path><path d="M575.57 2961.83L718.3 2961.83L718.3 2991.85L575.57 2991.85z" fill="rgba(175, 71, 210, 1)"></path><path d="M559.17 18967.74L610.42 18967.74L610.42 19018.99L559.17 19018.99z" fill="rgba(255, 143, 0, 1)"></path><path d="M860.01 18580.72 a103.05 103.05 0 1 0 206.1 0 a103.05 103.05 0 1 0 -206.1 0z" stroke="rgba(38, 53, 93, 1)"></path><path d="M37.95 1039L97.39 1039L97.39 1098.44L37.95 1098.44z" fill="rgba(255, 219, 0, 1)"></path><path d="M180.9 4970.92a19.32 19.32 0 1 0 35.03 16.31z" stroke="rgba(38, 53, 93, 1)"></path><path d="M680.05 18193.7a10.69 10.69 0 1 0 17.92-11.67z" fill="rgba(38, 53, 93, 1)"></path><path d="M1167.52 9701.71 a119.24 119.24 0 1 0 238.48 0 a119.24 119.24 0 1 0 -238.48 0z" fill="rgba(38, 53, 93, 1)"></path><path d="M927.34 13645.54L1068.71 13645.54L1068.71 13705.22L927.34 13705.22z" stroke="rgba(255, 219, 0, 1)"></path><path d="M369.34 3450.13L505.51 3450.13L505.51 3569.69L369.34 3569.69z" stroke="rgba(38, 53, 93, 1)"></path><path d="M297.9 7377.71 a89.22 89.22 0 1 0 178.44 0 a89.22 89.22 0 1 0 -178.44 0z" stroke="rgba(255, 143, 0, 1)"></path><path d="M577.41 12078.24 a73.68 73.68 0 1 0 147.36 0 a73.68 73.68 0 1 0 -147.36 0z" fill="rgba(38, 53, 93, 1)"></path><path d="M923.67 14773.17L974.99 14773.17L974.99 14824.49L923.67 14824.49z" stroke="rgba(255, 143, 0, 1)"></path><path d="M1360.42 8488.6 a52.07 52.07 0 1 0 104.14 0 a52.07 52.07 0 1 0 -104.14 0z" fill="rgba(255, 143, 0, 1)"></path><path d="M1198.64 14619.81a10.18 10.18 0 1 0 3.79-20z" fill="rgba(38, 53, 93, 1)"></path><path d="M369.01 2315.47a17.62 17.62 0 1 0 34.64-6.48z" fill="rgba(255, 219, 0, 1)"></path><path d="M667.34 12863.08L693.42 12863.08L693.42 12889.16L667.34 12889.16z" fill="rgba(175, 71, 210, 1)"></path><path d="M1139.41 10969.02L1209.18 10969.02L1209.18 11038.79L1139.41 11038.79z" fill="rgba(255, 143, 0, 1)"></path><path d="M1012.58 12520.98a112.28 112.28 0 1 0-102.5-199.81z" fill="rgba(175, 71, 210, 1)"></path><path d="M717.34 5637.21L736.2 5637.21L736.2 5656.07L717.34 5656.07z" stroke="rgba(255, 143, 0, 1)"></path><path d="M117.92 5086.27L154.36 5086.27L154.36 5122.71L117.92 5122.71z" stroke="rgba(255, 219, 0, 1)"></path><path d="M69.16 18229.27L115.08 18229.27L115.08 18275.19L69.16 18275.19z" fill="rgba(175, 71, 210, 1)"></path><path d="M985.19 16688.92a80.5 80.5 0 1 0 142.26-75.4z" fill="rgba(38, 53, 93, 1)"></path><path d="M482 17935.71a55.94 55.94 0 1 0 56.4-96.61z" fill="rgba(255, 143, 0, 1)"></path><path d="M161.34 11704.57a39.99 39.99 0 1 0-62.4-50.03z" fill="rgba(175, 71, 210, 1)"></path><path d="M911.45 6848.61L975.53 6848.61L975.53 6872.42L911.45 6872.42z" fill="rgba(255, 143, 0, 1)"></path><path d="M306.62 577.76L342.34 577.76L342.34 584.08L306.62 584.08z" fill="rgba(38, 53, 93, 1)"></path><path d="M440.71 13244.8L456.15 13244.8L456.15 13350.18L440.71 13350.18z" stroke="rgba(38, 53, 93, 1)"></path><path d="M1095.44 5512.73a103.03 103.03 0 1 0 118.31 168.71z" stroke="rgba(255, 219, 0, 1)"></path><path d="M1165.27 16823.54L1289.69 16823.54L1289.69 16915.49L1165.27 16915.49z" stroke="rgba(175, 71, 210, 1)"></path><path d="M201.62 255.39L217.88 255.39L217.88 336.08L201.62 336.08z" stroke="rgba(255, 219, 0, 1)"></path><path d="M866.65 16521.54L870.64 16521.54L870.64 16536.11L866.65 16536.11z" stroke="rgba(255, 219, 0, 1)"></path><path d="M664.48 9900.16 a9.21 9.21 0 1 0 18.42 0 a9.21 9.21 0 1 0 -18.42 0z" stroke="rgba(255, 143, 0, 1)"></path><path d="M956.14 11783.37 a128.53 128.53 0 1 0 257.06 0 a128.53 128.53 0 1 0 -257.06 0z" fill="rgba(38, 53, 93, 1)"></path><path d="M1217.29 5152.32 a56.51 56.51 0 1 0 113.02 0 a56.51 56.51 0 1 0 -113.02 0z" fill="rgba(38, 53, 93, 1)"></path><path d="M831.13 2725.79 a55.3 55.3 0 1 0 110.6 0 a55.3 55.3 0 1 0 -110.6 0z" fill="rgba(255, 143, 0, 1)"></path><path d="M853.85 2037.97L909.89 2037.97L909.89 2041.55L853.85 2041.55z" fill="rgba(255, 143, 0, 1)"></path><path d="M1230.37 16932.15a33.7 33.7 0 1 0-42.68-52.17z" stroke="rgba(255, 219, 0, 1)"></path><path d="M1065.04 5481.49a103.79 103.79 0 1 0-166.56-123.88z" fill="rgba(255, 143, 0, 1)"></path><path d="M79.33 2929.63L176.7 2929.63L176.7 3027L79.33 3027z" stroke="rgba(175, 71, 210, 1)"></path><path d="M863.01 9382.74L863.5 9382.74L863.5 9472.98L863.01 9472.98z" stroke="rgba(175, 71, 210, 1)"></path><path d="M506.04 8227.69 a30.11 30.11 0 1 0 60.22 0 a30.11 30.11 0 1 0 -60.22 0z" fill="rgba(175, 71, 210, 1)"></path><path d="M528.05 9738.62L613.05 9738.62L613.05 9806.77L528.05 9806.77z" stroke="rgba(38, 53, 93, 1)"></path><path d="M202.59 14258.87 a133.62 133.62 0 1 0 267.24 0 a133.62 133.62 0 1 0 -267.24 0z" fill="rgba(175, 71, 210, 1)"></path><path d="M493.28 17361.09 a141.2 141.2 0 1 0 282.4 0 a141.2 141.2 0 1 0 -282.4 0z" fill="rgba(255, 143, 0, 1)"></path><path d="M858.38 14726.26 a82.72 82.72 0 1 0 165.44 0 a82.72 82.72 0 1 0 -165.44 0z" fill="rgba(255, 143, 0, 1)"></path><path d="M888.78 12458.17L908.32 12458.17L908.32 12477.71L888.78 12477.71z" fill="rgba(255, 143, 0, 1)"></path></g><defs><mask id="SvgjsMask1080"><rect width="1440" height="20000" fill="#ffffff"></rect></mask></defs></svg>