<svg xmlns="http://www.w3.org/2000/svg" version="1.1" xmlns:xlink="http://www.w3.org/1999/xlink" xmlns:svgjs="http://svgjs.dev/svgjs" width="1600" height="865" preserveAspectRatio="none" viewBox="0 0 1600 865"><g mask="url(&quot;#SvgjsMask7879&quot;)" fill="none"><path d="M1531.52 752.95 L1452.71 613.76L1408.8480297733697 766.6219702266303z" stroke="rgba(255, 219, 0, 1)" stroke-width="1"></path><path d="M1387.21 536.89 L1147.5 600.3199999999999L1421.8747514931938 723.1247514931939z" fill="rgba(175, 71, 210, 1)"></path><path d="M670.23 252.26L682.12 247.48 689.38 258.03 701.27 253.25 708.53 263.8 720.42 259.02 727.68 269.57" stroke="rgba(175, 71, 210, 1)" stroke-width="1.69" stroke-dasharray="4, 4"></path><path d="M432.7 726.09a5.6 5.6 0 1 0-10.97 2.23 5.6 5.6 0 1 0 10.97-2.23zM417.02 729.28a5.6 5.6 0 1 0-10.97 2.23 5.6 5.6 0 1 0 10.97-2.23zM401.34 732.47a5.6 5.6 0 1 0-10.97 2.23 5.6 5.6 0 1 0 10.97-2.23zM385.67 735.65a5.6 5.6 0 1 0-10.98 2.23 5.6 5.6 0 1 0 10.98-2.23z" stroke="rgba(255, 143, 0, 1)" stroke-width="2.12" stroke-dasharray="2, 2"></path><path d="M1333.35 849.96a5.6 5.6 0 1 0-10.89-2.63 5.6 5.6 0 1 0 10.89 2.63zM1317.79 846.21a5.6 5.6 0 1 0-10.89-2.63 5.6 5.6 0 1 0 10.89 2.63zM1302.24 842.46a5.6 5.6 0 1 0-10.89-2.63 5.6 5.6 0 1 0 10.89 2.63zM1286.68 838.7a5.6 5.6 0 1 0-10.88-2.62 5.6 5.6 0 1 0 10.88 2.62zM1368.21 841.91a5.6 5.6 0 1 0-10.89-2.63 5.6 5.6 0 1 0 10.89 2.63zM1352.65 838.16a5.6 5.6 0 1 0-10.89-2.63 5.6 5.6 0 1 0 10.89 2.63zM1337.1 834.4a5.6 5.6 0 1 0-10.89-2.62 5.6 5.6 0 1 0 10.89 2.62zM1321.54 830.65a5.6 5.6 0 1 0-10.88-2.62 5.6 5.6 0 1 0 10.88 2.62zM1403.06 833.86a5.6 5.6 0 1 0-10.88-2.63 5.6 5.6 0 1 0 10.88 2.63zM1387.51 830.1a5.6 5.6 0 1 0-10.89-2.62 5.6 5.6 0 1 0 10.89 2.62zM1371.96 826.35a5.6 5.6 0 1 0-10.89-2.62 5.6 5.6 0 1 0 10.89 2.62zM1356.4 822.6a5.6 5.6 0 1 0-10.88-2.62 5.6 5.6 0 1 0 10.88 2.62z" stroke="rgba(175, 71, 210, 1)" stroke-width="2.25" stroke-dasharray="3, 2"></path><circle r="72.08333333333333" cx="8.87" cy="127.35" fill="rgba(255, 219, 0, 1)"></circle><rect width="252" height="252" clip-path="url(&quot;#SvgjsClipPath7880&quot;)" x="1326.51" y="39.5" fill="url(&quot;#SvgjsPattern7881&quot;)" transform="rotate(195.66, 1452.51, 165.5)"></rect><rect width="519.44" height="519.44" clip-path="url(&quot;#SvgjsClipPath7882&quot;)" x="1167.67" y="308.73" fill="url(&quot;#SvgjsPattern7883&quot;)" transform="rotate(67.88, 1427.39, 568.45)"></rect><path d="M221.44 56.21a5.6 5.6 0 1 0-4.08 10.43 5.6 5.6 0 1 0 4.08-10.43zM215.61 71.11a5.6 5.6 0 1 0-4.08 10.43 5.6 5.6 0 1 0 4.08-10.43zM209.78 86.01a5.6 5.6 0 1 0-4.08 10.43 5.6 5.6 0 1 0 4.08-10.43zM203.95 100.91a5.6 5.6 0 1 0-4.08 10.43 5.6 5.6 0 1 0 4.08-10.43zM218.2 20.58a5.6 5.6 0 1 0-4.08 10.43 5.6 5.6 0 1 0 4.08-10.43zM212.37 35.48a5.6 5.6 0 1 0-4.08 10.43 5.6 5.6 0 1 0 4.08-10.43zM206.54 50.38a5.6 5.6 0 1 0-4.08 10.43 5.6 5.6 0 1 0 4.08-10.43zM200.71 65.28a5.6 5.6 0 1 0-4.08 10.43 5.6 5.6 0 1 0 4.08-10.43z" stroke="rgba(255, 143, 0, 1)" stroke-width="1.26"></path></g><defs><mask id="SvgjsMask7879"><rect width="1600" height="865" fill="#ffffff"></rect></mask><pattern x="0" y="0" width="252" height="6" patternUnits="userSpaceOnUse" id="SvgjsPattern7881"><rect width="252" height="3" x="0" y="0" fill="rgba(175, 71, 210, 1)"></rect><rect width="252" height="3" x="0" y="3" fill="rgba(0, 0, 0, 0)"></rect></pattern><clipPath id="SvgjsClipPath7880"><circle r="63" cx="1452.51" cy="165.5"></circle></clipPath><pattern x="0" y="0" width="6.04" height="6.04" patternUnits="userSpaceOnUse" id="SvgjsPattern7883"><path d="M3.02 1L3.02 5.04M1 3.02L5.04 3.02" stroke="rgba(255, 219, 0, 1)" fill="none" stroke-width="1.06"></path></pattern><clipPath id="SvgjsClipPath7882"><circle r="129.86" cx="1427.39" cy="568.45"></circle></clipPath></defs></svg>