<svg xmlns="http://www.w3.org/2000/svg" version="1.1" xmlns:xlink="http://www.w3.org/1999/xlink" xmlns:svgjs="http://svgjs.dev/svgjs" width="1600" height="865" preserveAspectRatio="none" viewBox="0 0 1600 865"><g mask="url(&quot;#SvgjsMask1085&quot;)" fill="none"><rect width="190.08" height="190.08" clip-path="url(&quot;#SvgjsClipPath1086&quot;)" x="463.88" y="502.3" fill="url(&quot;#SvgjsPattern1087&quot;)" transform="rotate(214.56, 558.92, 597.34)"></rect><rect width="180" height="180" clip-path="url(&quot;#SvgjsClipPath1088&quot;)" x="969.17" y="411.44" fill="url(&quot;#SvgjsPattern1089&quot;)" transform="rotate(252.25, 1059.17, 501.44)"></rect><path d="M1141.67 568.9L1137.52 581.01 1124.78 579.62 1120.63 591.73 1107.9 590.34 1103.75 602.45 1091.02 601.06M1137.38 562.15L1133.23 574.26 1120.5 572.87 1116.34 584.98 1103.61 583.59 1099.46 595.7 1086.73 594.3M1133.09 555.39L1128.94 567.51 1116.21 566.11 1112.05 578.23 1099.32 576.83 1095.17 588.95 1082.44 587.55" stroke="rgba(255, 143, 0, 1)" stroke-width="1" stroke-dasharray="3, 3"></path><circle r="140.90421691487106" cx="5.7" cy="602.12" fill="rgba(255, 143, 0, 1)"></circle><path d="M499.15999999999997 874.11 L618.5799999999999 991.87L669.3330490297367 822.5269509702632z" stroke="rgba(175, 71, 210, 1)" stroke-width="1"></path><rect width="124.8" height="124.8" clip-path="url(&quot;#SvgjsClipPath1090&quot;)" x="1065.95" y="215.58" fill="url(&quot;#SvgjsPattern1091&quot;)" transform="rotate(79.11, 1128.35, 277.98)"></rect><path d="M193.18 711.2 L354.88 609.81L165.5183992684901 551.9933992684901z" fill="rgba(175, 71, 210, 1)"></path><rect width="257.04" height="257.04" clip-path="url(&quot;#SvgjsClipPath1092&quot;)" x="1334.94" y="394.54" fill="url(&quot;#SvgjsPattern1093&quot;)" transform="rotate(67.7, 1463.46, 523.06)"></rect><rect width="538.16" height="538.16" clip-path="url(&quot;#SvgjsClipPath1094&quot;)" x="215.88" y="-41.56" fill="url(&quot;#SvgjsPattern1095&quot;)" transform="rotate(131.5, 484.96, 227.52)"></rect></g><defs><mask id="SvgjsMask1085"><rect width="1600" height="865" fill="#ffffff"></rect></mask><pattern x="0" y="0" width="11.88" height="11.88" patternUnits="userSpaceOnUse" id="SvgjsPattern1087"><path d="M5.94 1L5.94 10.88M1 5.94L10.88 5.94" stroke="rgba(255, 219, 0, 1)" fill="none" stroke-width="1.65"></path></pattern><clipPath id="SvgjsClipPath1086"><circle r="47.52" cx="558.92" cy="597.34"></circle></clipPath><pattern x="0" y="0" width="6" height="6" patternUnits="userSpaceOnUse" id="SvgjsPattern1089"><path d="M3 1L3 5M1 3L5 3" stroke="rgba(255, 143, 0, 1)" fill="none" stroke-width="1.26"></path></pattern><clipPath id="SvgjsClipPath1088"><circle r="45" cx="1059.17" cy="501.44"></circle></clipPath><pattern x="0" y="0" width="12.48" height="12.48" patternUnits="userSpaceOnUse" id="SvgjsPattern1091"><path d="M6.24 1L6.24 11.48M1 6.24L11.48 6.24" stroke="rgba(255, 219, 0, 1)" fill="none" stroke-width="3.06"></path></pattern><clipPath id="SvgjsClipPath1090"><circle r="31.2" cx="1128.35" cy="277.98"></circle></clipPath><pattern x="0" y="0" width="7.56" height="7.56" patternUnits="userSpaceOnUse" id="SvgjsPattern1093"><path d="M3.78 1L3.78 6.56M1 3.78L6.56 3.78" stroke="rgba(255, 143, 0, 1)" fill="none" stroke-width="1.22"></path></pattern><clipPath id="SvgjsClipPath1092"><circle r="64.26" cx="1463.46" cy="523.06"></circle></clipPath><pattern x="0" y="0" width="8.68" height="8.68" patternUnits="userSpaceOnUse" id="SvgjsPattern1095"><path d="M0 8.68L4.34 0L8.68 8.68" stroke="rgba(255, 143, 0, 1)" fill="none"></path></pattern><clipPath id="SvgjsClipPath1094"><circle r="134.54" cx="484.96" cy="227.52"></circle></clipPath></defs></svg>