<svg xmlns="http://www.w3.org/2000/svg" version="1.1" xmlns:xlink="http://www.w3.org/1999/xlink" xmlns:svgjs="http://svgjs.dev/svgjs" width="1600" height="865" preserveAspectRatio="none" viewBox="0 0 1600 865"><g mask="url(&quot;#SvgjsMask1159&quot;)" fill="none"><circle r="116.38939629637485" cx="8.16" cy="815.95" fill="rgba(255, 143, 0, 1)"></circle><circle r="107.60900019969415" cx="782.28" cy="822.88" fill="rgba(175, 71, 210, 1)"></circle><rect width="110" height="110" clip-path="url(&quot;#SvgjsClipPath1160&quot;)" x="403.23" y="623.56" fill="url(&quot;#SvgjsPattern1161&quot;)" transform="rotate(18.68, 458.23, 678.56)"></rect><path d="M621.39 863.74 L655.57 1090.9L766.0921047722388 849.7078952277612z" stroke="rgba(255, 143, 0, 1)" stroke-width="1" stroke-dasharray="3, 2"></path><rect width="277.16" height="277.16" clip-path="url(&quot;#SvgjsClipPath1162&quot;)" x="-46.98" y="689.42" fill="url(&quot;#SvgjsPattern1163&quot;)" transform="rotate(85.2, 91.6, 828)"></rect><rect width="393.12" height="393.12" clip-path="url(&quot;#SvgjsClipPath1164&quot;)" x="1352.08" y="319.38" fill="url(&quot;#SvgjsPattern1165&quot;)" transform="rotate(333.31, 1548.64, 515.94)"></rect><rect width="524.16" height="524.16" clip-path="url(&quot;#SvgjsClipPath1166&quot;)" x="878.7" y="354.96" fill="url(&quot;#SvgjsPattern1167&quot;)" transform="rotate(145.5, 1140.78, 617.04)"></rect><path d="M983.66 162.91L990.69 152.2 1002.68 156.72 1009.71 146.02 1021.7 150.53 1028.73 139.83 1040.72 144.34M986.13 170.51L993.17 159.81 1005.15 164.33 1012.19 153.62 1024.17 158.14 1031.21 147.44 1043.19 151.95M988.61 178.12L995.64 167.42 1007.63 171.93 1014.66 161.23 1026.65 165.75 1033.68 155.05 1045.67 159.56" stroke="rgba(175, 71, 210, 1)" stroke-width="1" stroke-dasharray="2, 2"></path><path d="M1509.64 461.61L1519.51 469.77 1513.7 481.19 1523.57 489.36 1517.76 500.77 1527.62 508.94 1521.82 520.36M1501.81 463.23L1511.67 471.4 1505.87 482.81 1515.73 490.98 1509.93 502.4 1519.79 510.57 1513.99 521.98" stroke="rgba(255, 219, 0, 1)" stroke-width="1" stroke-dasharray="4, 4"></path></g><defs><mask id="SvgjsMask1159"><rect width="1600" height="865" fill="#ffffff"></rect></mask><pattern x="0" y="0" width="110" height="11" patternUnits="userSpaceOnUse" id="SvgjsPattern1161"><rect width="110" height="5.5" x="0" y="0" fill="rgba(175, 71, 210, 1)"></rect><rect width="110" height="5.5" x="0" y="5.5" fill="rgba(0, 0, 0, 0)"></rect></pattern><clipPath id="SvgjsClipPath1160"><circle r="27.5" cx="458.23" cy="678.56"></circle></clipPath><pattern x="0" y="0" width="10.66" height="10.66" patternUnits="userSpaceOnUse" id="SvgjsPattern1163"><path d="M5.33 1L5.33 9.66M1 5.33L9.66 5.33" stroke="rgba(175, 71, 210, 1)" fill="none" stroke-width="2.78"></path></pattern><clipPath id="SvgjsClipPath1162"><circle r="69.29" cx="91.6" cy="828"></circle></clipPath><pattern x="0" y="0" width="7.28" height="7.28" patternUnits="userSpaceOnUse" id="SvgjsPattern1165"><path d="M3.64 1L3.64 6.28M1 3.64L6.28 3.64" stroke="rgba(255, 143, 0, 1)" fill="none" stroke-width="1"></path></pattern><clipPath id="SvgjsClipPath1164"><circle r="98.28" cx="1548.64" cy="515.94"></circle></clipPath><pattern x="0" y="0" width="9.36" height="9.36" patternUnits="userSpaceOnUse" id="SvgjsPattern1167"><path d="M0 9.36L4.68 0L9.36 9.36" stroke="rgba(255, 219, 0, 1)" fill="none"></path></pattern><clipPath id="SvgjsClipPath1166"><circle r="131.04" cx="1140.78" cy="617.04"></circle></clipPath></defs></svg>