<svg xmlns="http://www.w3.org/2000/svg" version="1.1" xmlns:xlink="http://www.w3.org/1999/xlink" xmlns:svgjs="http://svgjs.dev/svgjs" width="1600" height="865" preserveAspectRatio="none" viewBox="0 0 1600 865"><g mask="url(&quot;#SvgjsMask7795&quot;)" fill="none"><rect width="1600" height="865" x="0" y="0" fill="url(&quot;#SvgjsLinearGradient7796&quot;)"></rect><path d="M621.66 601.15L633.77 596.99 640.5 607.88 652.61 603.71 659.33 614.61 671.44 610.44 678.17 621.34M618.97 608.69L631.08 604.52 637.81 615.42 649.91 611.25 656.64 622.15 668.75 617.98 675.47 628.87M616.28 616.22L628.39 612.05 635.11 622.95 647.22 618.78 653.95 629.68 666.06 625.51 672.78 636.41" stroke="rgba(255, 219, 0, 1)" stroke-width="1.66" stroke-dasharray="2, 2"></path><path d="M1303.52 286.84L1314.36 280.02 1323.4 289.09 1334.23 282.27 1343.27 291.34 1354.1 284.52 1363.14 293.59M1302.62 294.79L1313.46 287.96 1322.5 297.04 1333.33 290.22 1342.37 299.29 1353.2 292.47 1362.24 301.54" stroke="rgba(175, 71, 210, 1)" stroke-width="1.08" stroke-dasharray="3, 3"></path><path d="M982.58 424.29L992.2 432.75 986.06 443.99 995.68 452.44 989.54 463.68 999.16 472.14 993.02 483.38M974.7 425.68L984.32 434.14 978.18 445.38 987.8 453.83 981.66 465.07 991.28 473.53 985.14 484.77M966.82 427.08L976.44 435.53 970.3 446.77 979.92 455.23 973.78 466.47 983.4 474.92 977.26 486.16" stroke="rgba(175, 71, 210, 1)" stroke-width="1.93" stroke-dasharray="2, 2"></path><rect width="277.2" height="277.2" clip-path="url(&quot;#SvgjsClipPath7797&quot;)" x="168.52" y="249.88" fill="url(&quot;#SvgjsPattern7798&quot;)" transform="rotate(278.11, 307.12, 388.48)"></rect><rect width="542.88" height="542.88" clip-path="url(&quot;#SvgjsClipPath7799&quot;)" x="-260.18" y="-170.59" fill="url(&quot;#SvgjsPattern7800&quot;)" transform="rotate(218.16, 11.26, 100.85)"></rect><rect width="560.5600000000001" height="560.5600000000001" clip-path="url(&quot;#SvgjsClipPath7801&quot;)" x="941.17" y="353.15" fill="url(&quot;#SvgjsPattern7802&quot;)" transform="rotate(210.92, 1221.45, 633.43)"></rect><rect width="248.32" height="248.32" clip-path="url(&quot;#SvgjsClipPath7803&quot;)" x="543.45" y="678.04" fill="url(&quot;#SvgjsPattern7804&quot;)" transform="rotate(102.93, 667.61, 802.2)"></rect><rect width="444" height="444" clip-path="url(&quot;#SvgjsClipPath7805&quot;)" x="247.61" y="382.32" fill="url(&quot;#SvgjsPattern7806&quot;)" transform="rotate(273.16, 469.61, 604.32)"></rect><path d="M1015.5999999999999 548.44 L869.6899999999999 541.21L885.9149322517051 601.555067748295z" fill="rgba(255, 143, 0, 1)"></path></g><defs><mask id="SvgjsMask7795"><rect width="1600" height="865" fill="#ffffff"></rect></mask><linearGradient x1="11.48%" y1="-21.24%" x2="88.52%" y2="121.24%" gradientUnits="userSpaceOnUse" id="SvgjsLinearGradient7796"><stop stop-color="rgba(30, 49, 103, 1)" offset="0"></stop><stop stop-color="rgba(249, 249, 250, 1)" offset="1"></stop></linearGradient><pattern x="0" y="0" width="277.2" height="6.3" patternUnits="userSpaceOnUse" id="SvgjsPattern7798"><rect width="277.2" height="3.15" x="0" y="0" fill="rgba(255, 219, 0, 1)"></rect><rect width="277.2" height="3.15" x="0" y="3.15" fill="rgba(0, 0, 0, 0)"></rect></pattern><clipPath id="SvgjsClipPath7797"><circle r="69.3" cx="307.12" cy="388.48"></circle></clipPath><pattern x="0" y="0" width="9.36" height="9.36" patternUnits="userSpaceOnUse" id="SvgjsPattern7800"><path d="M4.68 1L4.68 8.36M1 4.68L8.36 4.68" stroke="rgba(255, 219, 0, 1)" fill="none" stroke-width="3.19"></path></pattern><clipPath id="SvgjsClipPath7799"><circle r="135.72" cx="11.26" cy="100.85"></circle></clipPath><pattern x="0" y="0" width="12.74" height="12.74" patternUnits="userSpaceOnUse" id="SvgjsPattern7802"><path d="M0 12.74L6.37 0L12.74 12.74" stroke="rgba(255, 143, 0, 1)" fill="none"></path></pattern><clipPath id="SvgjsClipPath7801"><circle r="140.14000000000001" cx="1221.45" cy="633.43"></circle></clipPath><pattern x="0" y="0" width="7.76" height="7.76" patternUnits="userSpaceOnUse" id="SvgjsPattern7804"><path d="M0 7.76L3.88 0L7.76 7.76" stroke="rgba(175, 71, 210, 1)" fill="none"></path></pattern><clipPath id="SvgjsClipPath7803"><circle r="62.08" cx="667.61" cy="802.2"></circle></clipPath><pattern x="0" y="0" width="444" height="7.4" patternUnits="userSpaceOnUse" id="SvgjsPattern7806"><rect width="444" height="3.7" x="0" y="0" fill="rgba(175, 71, 210, 1)"></rect><rect width="444" height="3.7" x="0" y="3.7" fill="rgba(0, 0, 0, 0)"></rect></pattern><clipPath id="SvgjsClipPath7805"><circle r="111" cx="469.61" cy="604.32"></circle></clipPath></defs></svg>