<svg xmlns="http://www.w3.org/2000/svg" version="1.1" xmlns:xlink="http://www.w3.org/1999/xlink" xmlns:svgjs="http://svgjs.dev/svgjs" width="1600" height="865" preserveAspectRatio="none" viewBox="0 0 1600 865"><g mask="url(&quot;#SvgjsMask1195&quot;)" fill="none"><circle r="79.2534205780297" cx="125.68" cy="734.13" fill="rgba(175, 71, 210, 1)"></circle><circle r="72.98838176644041" cx="1519.94" cy="281.29" stroke="rgba(255, 143, 0, 1)" stroke-width="1" stroke-dasharray="3, 2"></circle><path d="M737.36 604.31L749.41 608.65 747.82 621.35 759.87 625.69 758.28 638.4 770.33 642.74 768.74 655.45M730.54 608.49L742.59 612.83 741 625.54 753.05 629.88 751.46 642.58 763.51 646.93 761.92 659.63" stroke="rgba(175, 71, 210, 1)" stroke-width="1.56" stroke-dasharray="4, 4"></path><path d="M180.59 791.48 L313.71000000000004 642.15L349.27560181817256 818.9406018181726z" stroke="rgba(255, 219, 0, 1)" stroke-width="1" stroke-dasharray="3, 3"></path><path d="M1243.48 512.26 L1156.85 568.3199999999999L1130.2465945519893 470.37159455198935z" fill="rgba(255, 143, 0, 1)"></path><path d="M1540.01 852.4a5.6 5.6 0 1 0-3.65-10.59 5.6 5.6 0 1 0 3.65 10.59zM1534.79 837.27a5.6 5.6 0 1 0-3.65-10.59 5.6 5.6 0 1 0 3.65 10.59zM1529.58 822.15a5.6 5.6 0 1 0-3.65-10.59 5.6 5.6 0 1 0 3.65 10.59zM1524.37 807.02a5.6 5.6 0 1 0-3.65-10.59 5.6 5.6 0 1 0 3.65 10.59zM1565.56 877.44a5.6 5.6 0 1 0-3.65-10.59 5.6 5.6 0 1 0 3.65 10.59zM1560.35 862.31a5.6 5.6 0 1 0-3.65-10.59 5.6 5.6 0 1 0 3.65 10.59zM1555.14 847.19a5.6 5.6 0 1 0-3.65-10.59 5.6 5.6 0 1 0 3.65 10.59zM1549.92 832.06a5.6 5.6 0 1 0-3.65-10.59 5.6 5.6 0 1 0 3.65 10.59z" stroke="rgba(175, 71, 210, 1)" stroke-width="1.18"></path><path d="M1337.38 466.47a5.6 5.6 0 1 0-7.57-8.26 5.6 5.6 0 1 0 7.57 8.26zM1326.57 454.67a5.6 5.6 0 1 0-7.56-8.26 5.6 5.6 0 1 0 7.56 8.26zM1315.77 442.87a5.6 5.6 0 1 0-7.56-8.27 5.6 5.6 0 1 0 7.56 8.27zM1304.97 431.06a5.6 5.6 0 1 0-7.57-8.26 5.6 5.6 0 1 0 7.57 8.26zM1370.78 479.27a5.6 5.6 0 1 0-7.56-8.26 5.6 5.6 0 1 0 7.56 8.26zM1359.98 467.47a5.6 5.6 0 1 0-7.56-8.26 5.6 5.6 0 1 0 7.56 8.26zM1349.18 455.67a5.6 5.6 0 1 0-7.56-8.26 5.6 5.6 0 1 0 7.56 8.26zM1338.37 443.86a5.6 5.6 0 1 0-7.56-8.26 5.6 5.6 0 1 0 7.56 8.26zM1404.19 492.07a5.6 5.6 0 1 0-7.56-8.26 5.6 5.6 0 1 0 7.56 8.26zM1393.39 480.27a5.6 5.6 0 1 0-7.56-8.26 5.6 5.6 0 1 0 7.56 8.26zM1382.59 468.47a5.6 5.6 0 1 0-7.57-8.26 5.6 5.6 0 1 0 7.57 8.26zM1371.78 456.67a5.6 5.6 0 1 0-7.56-8.27 5.6 5.6 0 1 0 7.56 8.27z" stroke="rgba(255, 219, 0, 1)" stroke-width="2.5" stroke-dasharray="4, 4"></path><circle r="72.08333333333333" cx="861.84" cy="426.15" fill="rgba(255, 219, 0, 1)"></circle><path d="M1332.77 545.65 L1220.3400000000001 356.21L1140.1862054915073 587.2987945084926z" stroke="rgba(175, 71, 210, 1)" stroke-width="1" stroke-dasharray="4, 4"></path></g><defs><mask id="SvgjsMask1195"><rect width="1600" height="865" fill="#ffffff"></rect></mask></defs></svg>