<svg xmlns="http://www.w3.org/2000/svg" version="1.1" xmlns:xlink="http://www.w3.org/1999/xlink" xmlns:svgjs="http://svgjs.dev/svgjs" width="1650" height="650" preserveAspectRatio="none" viewBox="0 0 1650 650"><g mask="url(&quot;#SvgjsMask1132&quot;)" fill="none"><path d="M -339.06577541390493,379 C -297.67,318.4 -214.87,74.6 -132.06577541390493,76 C -49.27,77.4 -7.87,369.8 74.93422458609507,386 C 157.73,402.2 199.13,165 281.93422458609507,157 C 364.73,149 406.13,322.8 488.93422458609507,346 C 571.73,369.2 613.13,250.8 695.9342245860951,273 C 778.73,295.2 820.13,479.4 902.9342245860951,457 C 985.73,434.6 1027.13,156 1109.934224586095,161 C 1192.73,166 1234.13,483.4 1316.934224586095,482 C 1399.73,480.6 1457.32,122.4 1523.934224586095,154 C 1590.55,185.6 1624.79,542.8 1650,640" stroke="rgba(175, 71, 210, 1)" stroke-width="2"></path><path d="M -409.2877147115128,264 C -367.89,293.6 -285.09,401.8 -202.28771471151282,412 C -119.49,422.2 -78.09,302 4.71228528848718,315 C 87.51,328 128.91,494.8 211.71228528848718,477 C 294.51,459.2 335.91,251.8 418.7122852884872,226 C 501.51,200.2 542.91,390.6 625.7122852884872,348 C 708.51,305.4 749.91,16.4 832.7122852884872,13 C 915.51,9.6 956.91,285.6 1039.7122852884872,331 C 1122.51,376.4 1163.91,201.2 1246.7122852884872,240 C 1329.51,278.8 1373.05,531.4 1453.7122852884872,525 C 1534.37,518.6 1610.74,271.4 1650,208" stroke="rgba(255, 219, 0, 0.37)" stroke-width="2"></path><path d="M -330.98815820505445,368 C -289.59,299.6 -206.79,-1.2 -123.98815820505442,26 C -41.19,53.2 0.21,504.4 83.01184179494558,504 C 165.81,503.6 207.21,12.4 290.01184179494555,24 C 372.81,35.6 414.21,526.8 497.01184179494555,562 C 579.81,597.2 621.21,221.4 704.0118417949456,200 C 786.81,178.6 828.21,480 911.0118417949456,455 C 993.81,430 1035.21,79.8 1118.0118417949457,75 C 1200.81,70.2 1242.21,440.2 1325.0118417949457,431 C 1407.81,421.8 1467.01,46 1532.0118417949457,29 C 1597.01,12 1626.4,282.6 1650,346" stroke="rgba(38, 53, 93, 0.31)" stroke-width="2"></path></g><defs><mask id="SvgjsMask1132"><rect width="1650" height="650" fill="#ffffff"></rect></mask></defs></svg>